<svg width="40" height="40" viewBox="0 0 40 40" fill="none" xmlns="http://www.w3.org/2000/svg">
<path d="M10.9607 19.9999C10.9607 24.9833 15.0165 29.0392 19.9999 29.0392C24.9833 29.0392 29.0392 24.9833 29.0392 19.9999C29.0392 15.0165 24.9833 10.9607 19.9999 10.9607C15.0165 10.9607 10.9607 15.0165 10.9607 19.9999ZM24.518 18.6228L19.2626 23.8782L15.4819 20.0974L17.1482 18.4279L19.2626 20.5423L22.8501 16.9533L24.518 18.6228ZM37.9999 19.8427L34.1484 16.9533L30.2968 19.8427L31.7117 21.7292L32.9127 20.8284C32.6219 25.4345 29.9761 29.5092 25.8102 31.5843L26.8603 33.694C31.8579 31.2055 35.0098 26.2865 35.2755 20.7467L36.585 21.7292L37.9999 19.8427ZM21.7292 8.28819L20.8284 7.08872C25.3889 7.40627 29.5108 10.0284 31.5843 14.1896L33.694 13.1395C31.2055 8.14198 26.2865 4.99003 20.7467 4.72436L21.7292 3.41484L19.8427 2L16.9533 5.85151L19.8427 9.70303L21.7292 8.28819ZM8.28819 18.2707L7.08872 19.1715C7.37797 14.5654 10.0237 10.4922 14.1912 8.41552L13.1379 6.30584C8.14199 8.79438 4.99003 13.7133 4.72436 19.2532L3.41484 18.2707L2 20.1571L5.85151 23.0466L9.70303 20.1571L8.28819 18.2707ZM18.2707 31.7117L19.1699 32.9111C14.6078 32.5905 10.4906 29.9714 8.41709 25.8086L6.30584 26.8619C8.79438 31.8579 13.7133 35.0098 19.2532 35.2755L18.2707 36.585L20.1571 37.9999L23.0466 34.1484L20.1571 30.2968L18.2707 31.7117Z" fill="#048AE2"/>
</svg>
