<svg width="40" height="40" viewBox="0 0 40 40" fill="none" xmlns="http://www.w3.org/2000/svg">
<g clip-path="url(#clip0_71_804)">
<path d="M20 0C8.972 0 0 8.972 0 20C0 31.028 8.972 40 20 40C31.0281 40 40 31.028 40 20C40 8.972 31.0281 0 20 0ZM9.81818 16.1212C9.81818 15.4836 10.0776 14.8582 10.5284 14.4072C10.9794 13.9564 11.6036 13.697 12.2424 13.697C12.88 13.697 13.5055 13.9564 13.9564 14.4072C14.4084 14.8582 14.6667 15.4836 14.6667 16.1212C14.6667 16.7588 14.4084 17.3842 13.9564 17.8351C13.5055 18.2861 12.88 18.5455 12.2424 18.5455C11.6048 18.5455 10.9794 18.2859 10.5284 17.8351C10.0776 17.3842 9.81818 16.7588 9.81818 16.1212ZM27.4567 27.4567C26.7468 28.1667 25.5955 28.1667 24.8855 27.4567C23.5804 26.1518 21.8455 25.4332 20 25.4332C18.1543 25.4332 16.4195 26.1519 15.1144 27.4567C14.7594 27.8118 14.2941 27.9893 13.8288 27.9893C13.3636 27.9893 12.8982 27.8118 12.5432 27.4567C11.8331 26.7468 11.8331 25.5955 12.543 24.8855C14.5348 22.8937 17.1831 21.7967 19.9999 21.7967H20C22.8167 21.7967 25.465 22.8937 27.4567 24.8855C28.1667 25.5954 28.1667 26.7467 27.4567 27.4567ZM29.4715 17.8351C29.0206 18.2861 28.3951 18.5455 27.7576 18.5455C27.12 18.5455 26.4945 18.2859 26.0435 17.8351C25.5915 17.3842 25.3333 16.7588 25.3333 16.1212C25.3333 15.4836 25.5915 14.8582 26.0435 14.4072C26.4945 13.9564 27.1188 13.697 27.7576 13.697C28.3951 13.697 29.0206 13.9564 29.4715 14.4072C29.9236 14.8582 30.1818 15.4836 30.1818 16.1212C30.1818 16.7588 29.9235 17.3842 29.4715 17.8351Z" fill="#048AE2"/>
</g>
<defs>
<clipPath id="clip0_71_804">
<rect width="40" height="40" fill="white"/>
</clipPath>
</defs>
</svg>
