<svg width="40" height="40" viewBox="0 0 40 40" fill="none" xmlns="http://www.w3.org/2000/svg">
<path d="M20 0C16.0444 0 12.1776 1.17298 8.8886 3.37061C5.59962 5.56824 3.03617 8.69181 1.52242 12.3463C0.00866564 16.0009 -0.387401 20.0222 0.384303 23.9018C1.15601 27.7814 3.06082 31.3451 5.85787 34.1421C8.65492 36.9392 12.2186 38.844 16.0982 39.6157C19.9778 40.3874 23.9992 39.9913 27.6537 38.4776C31.3082 36.9638 34.4318 34.4004 36.6294 31.1114C38.827 27.8224 40 23.9556 40 20C40 14.6957 37.8929 9.60859 34.1421 5.85786C30.3914 2.10714 25.3043 0 20 0ZM8.20001 12.4816H10.4947C10.6119 12.4816 10.726 12.4444 10.8206 12.3753C10.9152 12.3062 10.9854 12.2089 11.0211 12.0974L11.7316 9.91579C11.7686 9.80556 11.8394 9.70974 11.9338 9.64186C12.0282 9.57399 12.1416 9.53747 12.2579 9.53747C12.3742 9.53747 12.4876 9.57399 12.582 9.64186C12.6764 9.70974 12.7472 9.80556 12.7842 9.91579L13.4974 12.1053C13.5331 12.2168 13.6033 12.3141 13.6979 12.3832C13.7925 12.4523 13.9066 12.4895 14.0237 12.4895H16.3158C16.4326 12.49 16.5462 12.5274 16.6405 12.5962C16.7349 12.665 16.8051 12.7618 16.8412 12.8729C16.8774 12.9839 16.8776 13.1035 16.8418 13.2147C16.8061 13.3259 16.7362 13.4229 16.6421 13.4921L14.8 14.8421C14.7049 14.9109 14.6341 15.0081 14.5977 15.1197C14.5613 15.2313 14.5612 15.3515 14.5974 15.4632L15.2974 17.6316C15.3339 17.7432 15.3341 17.8636 15.2979 17.9754C15.2617 18.0871 15.191 18.1845 15.0959 18.2536C15.0008 18.3226 14.8863 18.3597 14.7689 18.3595C14.6514 18.3594 14.537 18.3219 14.4421 18.2526L12.5869 16.9026C12.4911 16.8346 12.3766 16.7981 12.2592 16.7981C12.1418 16.7981 12.0273 16.8346 11.9316 16.9026L10.0763 18.2526C9.98177 18.3264 9.86584 18.3677 9.74591 18.3701C9.62597 18.3725 9.50848 18.336 9.411 18.2661C9.31353 18.1962 9.24132 18.0966 9.20518 17.9822C9.16904 17.8678 9.17092 17.7448 9.21054 17.6316L9.92106 15.45C9.958 15.3409 9.96012 15.2231 9.92711 15.1127C9.89411 15.0024 9.82762 14.9051 9.73685 14.8342L7.89475 13.4842C7.80036 13.417 7.72948 13.3219 7.69212 13.2122C7.65476 13.1025 7.65282 12.9839 7.68656 12.873C7.72031 12.7622 7.78804 12.6648 7.88017 12.5945C7.97231 12.5243 8.08419 12.4848 8.20001 12.4816ZM31.2605 25.1C30.4211 29.8921 25.6974 33.2158 20 33.2158C14.3026 33.2158 9.57633 29.8921 8.73685 25.1C8.72867 25.0513 8.72427 25.002 8.72369 24.9526C8.72369 24.2605 9.56317 23.8132 10.3026 24.0658C13.1447 25.0474 16.4632 25.5474 20.0053 25.5474C23.5474 25.5474 26.8605 25.0474 29.7053 24.0658C30.4395 23.8026 31.2842 24.2579 31.2842 24.9526C31.2802 25.0023 31.2723 25.0516 31.2605 25.1ZM32.1237 13.4842L30.2816 14.8342C30.1865 14.903 30.1157 15.0002 30.0793 15.1118C30.0429 15.2234 30.0428 15.3436 30.079 15.4553L30.7895 17.6316C30.826 17.7432 30.8262 17.8636 30.79 17.9754C30.7538 18.0871 30.6831 18.1845 30.588 18.2536C30.493 18.3226 30.3784 18.3597 30.261 18.3595C30.1435 18.3594 30.0291 18.3219 29.9342 18.2526L28.0921 16.9026C27.997 16.8345 27.8828 16.7979 27.7658 16.7979C27.6488 16.7979 27.5346 16.8345 27.4395 16.9026L25.5816 18.2526C25.4877 18.3328 25.3698 18.3793 25.2465 18.3849C25.1232 18.3906 25.0015 18.355 24.9007 18.2837C24.7999 18.2125 24.7257 18.1097 24.6898 17.9916C24.654 17.8735 24.6585 17.7468 24.7026 17.6316L25.4105 15.45C25.4467 15.3384 25.4466 15.2181 25.4102 15.1065C25.3738 14.9949 25.303 14.8978 25.2079 14.8289L23.3526 13.4789C23.2604 13.4088 23.1924 13.3116 23.1581 13.2009C23.1239 13.0902 23.1251 12.9716 23.1617 12.8617C23.1982 12.7517 23.2682 12.6559 23.362 12.5878C23.4557 12.5196 23.5683 12.4825 23.6842 12.4816H25.9737C26.0905 12.4804 26.2041 12.4427 26.2984 12.3738C26.3928 12.3049 26.4633 12.2083 26.5 12.0974L27.2079 9.91579C27.245 9.80556 27.3157 9.70974 27.4101 9.64186C27.5046 9.57399 27.6179 9.53747 27.7342 9.53747C27.8505 9.53747 27.9639 9.57399 28.0583 9.64186C28.1527 9.70974 28.2235 9.80556 28.2605 9.91579L28.9711 12.0974C29.0068 12.2089 29.077 12.3062 29.1716 12.3753C29.2662 12.4444 29.3803 12.4816 29.4974 12.4816H31.7921C31.9102 12.4792 32.0259 12.5148 32.1223 12.583C32.2187 12.6512 32.2907 12.7485 32.3277 12.8606C32.3648 12.9727 32.365 13.0937 32.3283 13.206C32.2916 13.3182 32.2199 13.4157 32.1237 13.4842Z" fill="#048AE2"/>
</svg>
