<svg width="34" height="34" viewBox="0 0 34 34" fill="none" xmlns="http://www.w3.org/2000/svg">
<path d="M16.9938 33.1936C25.9374 33.1936 33.1875 25.9435 33.1875 16.9999C33.1875 8.05634 25.9374 0.806152 16.9938 0.806152C8.05024 0.806152 0.800049 8.05634 0.800049 16.9999C0.800049 25.9435 8.05024 33.1936 16.9938 33.1936Z" fill="#048AE2"/>
<path d="M22.2313 26.4249H11.75C11.0813 26.4249 10.625 25.7124 10.9313 25.1186C12.0813 22.8811 14.4063 21.4124 16.9938 21.4124C19.575 21.4124 21.9063 22.8811 23.0563 25.1186C23.3625 25.7124 22.9063 26.4249 22.2375 26.4249H22.2313Z" fill="white"/>
<path d="M10.7063 17.7624C12.943 17.7624 14.7563 15.9491 14.7563 13.7124C14.7563 11.4756 12.943 9.66235 10.7063 9.66235C8.4695 9.66235 6.65625 11.4756 6.65625 13.7124C6.65625 15.9491 8.4695 17.7624 10.7063 17.7624Z" fill="white"/>
<path d="M10.7063 15.975C11.9559 15.975 12.9688 14.962 12.9688 13.7125C12.9688 12.4629 11.9559 11.45 10.7063 11.45C9.4568 11.45 8.44385 12.4629 8.44385 13.7125C8.44385 14.962 9.4568 15.975 10.7063 15.975Z" fill="#048AE2"/>
<path d="M23.2751 17.7624C25.5119 17.7624 27.3251 15.9491 27.3251 13.7124C27.3251 11.4756 25.5119 9.66235 23.2751 9.66235C21.0383 9.66235 19.2251 11.4756 19.2251 13.7124C19.2251 15.9491 21.0383 17.7624 23.2751 17.7624Z" fill="white"/>
<path d="M23.275 15.975C24.5245 15.975 25.5375 14.962 25.5375 13.7125C25.5375 12.4629 24.5245 11.45 23.275 11.45C22.0254 11.45 21.0125 12.4629 21.0125 13.7125C21.0125 14.962 22.0254 15.975 23.275 15.975Z" fill="#048AE2"/>
<path d="M4.22504 9.68116C6.18754 9.36241 7.87504 8.13116 8.88754 6.46866C9.29379 5.81241 10.3188 6.37491 9.98129 7.06866C9.47504 8.14366 8.58754 9.01241 7.57504 9.58116C6.56254 10.1562 5.39379 10.4624 4.25004 10.3874C4.15656 10.3811 4.06933 10.3382 4.00731 10.268C3.94528 10.1978 3.91347 10.1059 3.91879 10.0124C3.93129 9.84366 4.05629 9.71241 4.21879 9.68741L4.22504 9.68116ZM29.6125 10.3874C27.3063 10.5249 24.9 9.18741 23.8813 7.06866C23.55 6.36866 24.575 5.81241 24.975 6.46866C25.4813 7.27491 26.1313 7.99991 26.925 8.56866C27.7188 9.13116 28.65 9.51866 29.6438 9.68741C30.05 9.74366 30.0125 10.3749 29.6063 10.3874H29.6125Z" fill="white"/>
</svg>
