<svg width="40" height="40" viewBox="0 0 40 40" fill="none" xmlns="http://www.w3.org/2000/svg">
<path d="M19.9627 10.3119C14.5967 10.3119 10.1999 14.7087 10.1999 20.0743C10.1999 25.4399 14.5967 29.8371 19.9627 29.8371C25.3287 29.8371 29.7255 25.4403 29.7255 20.0743C29.7255 14.7087 25.3283 10.3119 19.9627 10.3119ZM20.7079 22.6079L18.9463 24.3699C18.8206 24.4955 18.6501 24.5661 18.4723 24.5661C18.2946 24.5661 18.1241 24.4955 17.9983 24.3699L14.5495 20.9211C14.4239 20.7954 14.3534 20.6249 14.3534 20.4471C14.3534 20.2694 14.4239 20.0989 14.5495 19.9731L15.8367 18.6855C15.9625 18.5598 16.1331 18.4892 16.3109 18.4892C16.4888 18.4892 16.6594 18.5598 16.7851 18.6855L18.4723 20.3727L23.1399 15.7719C23.266 15.6477 23.436 15.5784 23.613 15.579C23.79 15.5796 23.9595 15.6501 24.0847 15.7751L25.3719 17.0627C25.4345 17.1253 25.4841 17.1996 25.5179 17.2814C25.5516 17.3632 25.5688 17.4509 25.5685 17.5394C25.5682 17.6279 25.5504 17.7155 25.5161 17.797C25.4818 17.8786 25.4318 17.9526 25.3687 18.0147L20.7079 22.6079ZM19.9627 10.3119C14.5967 10.3119 10.1999 14.7087 10.1999 20.0743C10.1999 25.4399 14.5967 29.8371 19.9627 29.8371C25.3287 29.8371 29.7255 25.4403 29.7255 20.0743C29.7255 14.7087 25.3283 10.3119 19.9627 10.3119ZM20.7079 22.6079L18.9463 24.3699C18.8206 24.4955 18.6501 24.5661 18.4723 24.5661C18.2946 24.5661 18.1241 24.4955 17.9983 24.3699L14.5495 20.9211C14.4239 20.7954 14.3534 20.6249 14.3534 20.4471C14.3534 20.2694 14.4239 20.0989 14.5495 19.9731L15.8367 18.6855C15.9625 18.5598 16.1331 18.4892 16.3109 18.4892C16.4888 18.4892 16.6594 18.5598 16.7851 18.6855L18.4723 20.3727L23.1399 15.7719C23.266 15.6477 23.436 15.5784 23.613 15.579C23.79 15.5796 23.9595 15.6501 24.0847 15.7751L25.3719 17.0627C25.4345 17.1253 25.4841 17.1996 25.5179 17.2814C25.5516 17.3632 25.5688 17.4509 25.5685 17.5394C25.5682 17.6279 25.5504 17.7155 25.5161 17.797C25.4818 17.8786 25.4318 17.9526 25.3687 18.0147L20.7079 22.6079ZM19.9627 10.3119C14.5967 10.3119 10.1999 14.7087 10.1999 20.0743C10.1999 25.4399 14.5967 29.8371 19.9627 29.8371C25.3287 29.8371 29.7255 25.4403 29.7255 20.0743C29.7255 14.7087 25.3283 10.3119 19.9627 10.3119ZM20.7079 22.6079L18.9463 24.3699C18.8206 24.4955 18.6501 24.5661 18.4723 24.5661C18.2946 24.5661 18.1241 24.4955 17.9983 24.3699L14.5495 20.9211C14.4239 20.7954 14.3534 20.6249 14.3534 20.4471C14.3534 20.2694 14.4239 20.0989 14.5495 19.9731L15.8367 18.6855C15.9625 18.5598 16.1331 18.4892 16.3109 18.4892C16.4888 18.4892 16.6594 18.5598 16.7851 18.6855L18.4723 20.3727L23.1399 15.7719C23.266 15.6477 23.436 15.5784 23.613 15.579C23.79 15.5796 23.9595 15.6501 24.0847 15.7751L25.3719 17.0627C25.4345 17.1253 25.4841 17.1996 25.5179 17.2814C25.5516 17.3632 25.5688 17.4509 25.5685 17.5394C25.5682 17.6279 25.5504 17.7155 25.5161 17.797C25.4818 17.8786 25.4318 17.9526 25.3687 18.0147L20.7079 22.6079ZM37.4015 23.3535C36.8795 22.4591 37.0287 21.2667 37.6995 20.4471L38.3703 19.7019C39.3391 18.5839 39.1903 16.8699 37.9231 15.9755L37.1031 15.4539C36.2091 14.8579 35.8363 13.7399 36.1343 12.6967L36.4327 11.7275C36.8795 10.3115 35.9107 8.82114 34.4207 8.59754L33.4515 8.44874C32.4083 8.29954 31.5883 7.47994 31.3647 6.43674L31.2159 5.46754C30.9919 3.97714 29.5019 3.08274 28.0111 3.52994L27.0423 3.82834C25.9991 4.12634 24.8811 3.75354 24.2851 2.85914L23.6891 2.03994C22.7947 0.847939 21.0807 0.623939 19.9627 1.66714L19.2175 2.33794C18.3975 3.08314 17.2799 3.23234 16.3111 2.71074L15.4167 2.26354C14.0751 1.51834 12.4355 2.11434 11.9139 3.53034L11.5415 4.42474C11.1687 5.39354 10.1255 6.06434 9.08195 5.98994L8.26235 5.84074C6.77195 5.76634 5.50515 7.03274 5.65435 8.52354L5.72835 9.49234C5.80315 10.5359 5.20675 11.5791 4.16355 11.9515L3.26915 12.3243C1.85315 12.9203 1.33155 14.5603 2.07715 15.8271L2.59835 16.6467C3.12035 17.5411 2.97115 18.7335 2.30035 19.5531L1.62955 20.2983C0.660749 21.4163 0.809549 23.1303 2.07675 24.0247L2.89675 24.5463C3.79075 25.1423 4.16355 26.2603 3.86555 27.3035L3.56715 28.2727C3.12035 29.6887 4.08915 31.1791 5.57915 31.4027L6.54835 31.5515C7.59155 31.7007 8.41155 32.5203 8.63515 33.5635L8.78395 34.5327C9.00795 36.0231 10.4979 36.9175 11.9887 36.4703L12.9575 36.1719C14.0007 35.8739 15.1187 36.2467 15.7147 37.1411L16.3107 37.9607C17.2051 39.1527 18.9191 39.3767 20.0371 38.3335L20.7823 37.6627C21.6023 36.9175 22.7199 36.7683 23.6887 37.2899L24.5831 37.7371C25.9247 38.4823 27.5643 37.8863 28.0859 36.4703L28.4583 35.5759C28.8311 34.6071 29.8743 33.9363 30.9179 34.0107L31.8867 34.0855C33.3771 34.1599 34.6439 32.8931 34.4947 31.4027L34.4203 30.4339C34.3459 29.3903 34.9419 28.3471 35.9855 27.9743L36.8795 27.6019C38.2955 27.0059 38.8175 25.3659 38.0719 24.0991L37.4015 23.3535ZM19.9627 32.5947C13.0319 32.5947 7.36795 26.9307 7.36795 19.9999C7.36795 13.0691 13.0319 7.40514 19.9627 7.40514C26.8935 7.40514 32.5571 13.0691 32.5571 19.9999C32.5571 27.0051 26.8931 32.5947 19.9627 32.5947Z" fill="#048AE2"/>
</svg>
