<svg width="49" height="48" viewBox="0 0 49 48" fill="none" xmlns="http://www.w3.org/2000/svg">
<g clip-path="url(#clip0_1_1528)">
<path d="M48.517 10.5689C48.3201 10.8774 48.3402 11.2447 48.2549 11.5819C48.0085 12.6321 47.5699 13.6276 46.9611 14.5182C46.8682 14.6385 46.8095 14.7817 46.7912 14.9326C46.7729 15.0836 46.7956 15.2366 46.857 15.3757C47.5658 17.4799 47.9349 19.6835 47.9503 21.9038C47.9616 22.7401 47.6381 23.0685 46.7968 23.0685H26.5906C25.7494 23.0685 25.4397 22.7488 25.4397 21.9001C25.4397 15.1793 25.4397 8.45893 25.4397 1.73898C25.4397 0.826267 25.7431 0.541672 26.6721 0.561731C28.923 0.594802 31.1548 0.97975 33.2867 1.70262C33.3859 1.7438 33.4944 1.7575 33.6008 1.74228C33.7071 1.72706 33.8074 1.68347 33.891 1.61611C39.2444 -2.14505 46.8608 1.02937 48.2951 7.25786C48.3628 7.54998 48.3214 7.87219 48.517 8.13547V10.5689ZM39.2269 16.8752C43.2965 16.8651 46.6426 13.4801 46.6401 9.37289C46.6376 5.2657 43.2551 1.86184 39.2093 1.87187C34.9015 1.8819 31.6657 5.12528 31.687 9.41175C31.7083 13.6982 34.9329 16.8852 39.2269 16.8752ZM32.0255 3.26601C30.6467 2.85711 29.2283 2.59612 27.7942 2.48745C27.4055 2.45485 27.3052 2.53885 27.3052 2.94255C27.3203 8.86681 27.3203 14.7911 27.3052 20.7153C27.3052 21.1002 27.388 21.2043 27.7842 21.2018C31.8324 21.1855 35.8819 21.1917 39.9302 21.1917H45.656C45.8666 21.1917 46.0822 21.2582 46.0509 20.8796C45.9393 19.5568 45.7225 18.245 45.4027 16.9567C45.2936 16.5166 45.1783 16.5517 44.8498 16.7899C41.7042 19.0667 38.3643 19.5067 34.8639 17.6938C31.0476 15.718 29.0416 11.4566 29.9544 7.38825C30.2916 5.86874 31.0188 4.53478 32.0255 3.26601Z" fill="#292929"/>
<path d="M8.92942 48C8.40035 47.8132 7.83743 47.8007 7.29958 47.6502C6.14961 47.3497 5.06866 46.8295 4.11638 46.1182C2.67015 45.0356 1.59064 43.5356 1.02344 41.8204C0.520704 40.3688 0.367774 38.8189 0.577111 37.297C0.8429 35.4402 1.63025 33.833 2.81502 32.4075C2.88272 32.326 3.01561 32.3084 3.03442 32.1793C3.11716 32.1103 3.20492 32.0464 3.28516 31.9724C5.63715 29.7558 8.40535 28.8933 11.5961 29.4311C16.4731 30.2511 19.9459 35.1506 19.136 40.0188C18.7787 42.1652 17.8822 44.022 16.3326 45.554C15.0238 46.656 13.5594 47.4459 11.8669 47.7731C11.5459 47.8345 11.2212 47.8771 10.8978 47.9286C10.7975 47.9286 10.6821 47.8659 10.6194 48.005L8.92942 48ZM9.84714 46.1458C13.9606 46.1558 17.3582 42.8171 17.3695 38.7488C17.382 34.4586 14.1775 31.2152 9.90857 31.1964C5.60956 31.1776 2.37245 34.4009 2.36243 38.7099C2.3524 42.7757 5.73493 46.1345 9.84714 46.1458Z" fill="#292929"/>
<path d="M10.6169 48C10.6796 47.8608 10.795 47.921 10.8953 47.9235V48H10.6169Z" fill="#069AEE"/>
<path d="M16.3302 45.5489C17.8823 44.0169 18.7762 42.1639 19.1335 40.0138C19.9434 35.1456 16.4706 30.246 11.5936 29.4261C8.40288 28.8882 5.63466 29.7508 3.28268 31.9674C3.20495 32.0413 3.11718 32.1053 3.03193 32.1742C2.75862 32.0037 2.7536 31.6928 2.68214 31.4345C2.14612 29.6086 1.88334 27.7133 1.90233 25.8103C1.94931 23.1079 2.52205 20.4405 3.58858 17.957C4.78186 15.145 6.56567 12.6224 8.81912 10.5601C11.6651 7.95107 14.9899 6.24601 18.7962 5.53139C19.8846 5.33417 20.9875 5.22765 22.0935 5.21295C22.5311 5.20542 22.6376 5.33832 22.6364 5.76458C22.6238 12.2221 22.6209 18.6796 22.6276 25.1371C22.6345 25.2461 22.6345 25.3554 22.6276 25.4643C22.5912 25.7677 22.7091 25.8806 23.0213 25.8693C23.5679 25.848 24.1158 25.863 24.6624 25.863C30.6042 25.863 36.5456 25.863 42.4866 25.863C43.3742 25.863 43.2789 25.7376 43.2639 26.624C43.1949 31.0183 41.7331 34.9136 39.0551 38.3814C37.003 41.0334 34.35 43.1597 31.3146 44.5848C29.3558 45.5186 27.2625 46.1388 25.1112 46.4228C22.3375 46.7934 19.5167 46.5686 16.8367 45.7633C16.6636 45.7107 16.4693 45.6919 16.3302 45.5489Z" fill="#069AEE"/>
<path d="M41.7581 12.9084C41.605 12.9026 41.4547 12.8657 41.3163 12.8C41.1779 12.7343 41.0544 12.641 40.9532 12.526C40.4517 12.0245 39.9364 11.5518 39.4701 11.0215C39.193 10.7106 39.0388 10.7708 38.788 11.0403C38.3242 11.5481 37.8252 12.022 37.335 12.5034C36.8448 12.9848 36.3044 13.0262 35.8907 12.6125C35.4958 12.2176 35.5434 11.6521 36.0223 11.1682C36.5389 10.6454 37.0529 10.1213 37.5857 9.61609C37.7826 9.42928 37.77 9.32021 37.5857 9.13967C37.0429 8.62189 36.5163 8.0878 35.991 7.55372C35.5409 7.09736 35.5096 6.53695 35.897 6.14202C36.2844 5.7471 36.8448 5.76591 37.3049 6.21976C37.8302 6.73378 38.3605 7.24279 38.8582 7.78315C39.0927 8.03389 39.2206 8.00004 39.4362 7.76936C39.9264 7.24405 40.4392 6.74256 40.9545 6.23856C41.4209 5.78095 41.9574 5.73707 42.3624 6.12322C42.7673 6.50937 42.7385 7.09235 42.2746 7.56876C41.7606 8.09282 41.2466 8.61813 40.7137 9.12338C40.5119 9.3152 40.4906 9.42552 40.7062 9.62486C41.2742 10.1615 41.8183 10.7219 42.3662 11.2785C42.5062 11.4067 42.602 11.5761 42.6396 11.7622C42.6773 11.9483 42.6548 12.1416 42.5755 12.3141C42.5074 12.4789 42.3949 12.6217 42.2507 12.7266C42.1064 12.8315 41.9359 12.8944 41.7581 12.9084Z" fill="#292929"/>
<path d="M8.70753 41.9169C8.57354 41.924 8.43969 41.9007 8.31595 41.8488C8.19222 41.7969 8.08178 41.7178 7.9929 41.6173C7.24066 40.865 6.48843 40.1203 5.7362 39.3606C5.3162 38.9305 5.30868 38.3576 5.69107 37.9815C6.07345 37.6053 6.62383 37.6191 7.07016 38.0479C7.54281 38.5043 8.01171 38.9644 8.45929 39.4433C8.64484 39.6401 8.74263 39.6251 8.92567 39.4433C10.133 38.2184 11.3541 37.0086 12.5615 35.79C12.8122 35.5392 13.0868 35.3349 13.4629 35.3775C13.6366 35.3873 13.8036 35.4486 13.9424 35.5535C14.0813 35.6584 14.1858 35.8023 14.2427 35.9667C14.313 36.1352 14.331 36.3208 14.2946 36.4996C14.2582 36.6784 14.1689 36.8422 14.0384 36.9697C13.6121 37.406 13.1796 37.8348 12.7483 38.2661C11.6667 39.3526 10.5839 40.4358 9.49987 41.5157C9.28423 41.7364 9.04729 41.9395 8.70753 41.9169Z" fill="#292929"/>
</g>
<defs>
<clipPath id="clip0_1_1528">
<rect width="48.0339" height="48" fill="white" transform="translate(0.483093)"/>
</clipPath>
</defs>
</svg>
