<svg width="44" height="48" viewBox="0 0 44 48" fill="none" xmlns="http://www.w3.org/2000/svg">
<g clip-path="url(#clip0_1_1510)">
<path d="M23.4998 4.4913e-05C23.9759 0.19424 24.4895 0.177952 24.9844 0.265653C32.1596 1.53231 37.7299 7.48094 38.5154 14.7326C38.9137 18.4415 38.0435 22.1761 36.0467 25.3269C34.0499 28.4778 31.0443 30.8591 27.5202 32.0823C27.3248 32.15 27.0116 32.1425 26.9715 32.3592C26.9276 32.7149 26.9276 33.0747 26.9715 33.4304C26.9815 33.5795 27.1431 33.5294 27.2434 33.5319C27.6029 33.5394 27.9625 33.5231 28.3208 33.5432C28.5498 33.5484 28.7683 33.6396 28.9331 33.7986C29.0979 33.9576 29.1969 34.1728 29.2104 34.4014C29.2288 34.6301 29.1598 34.8572 29.0172 35.037C28.8747 35.2167 28.6692 35.3357 28.4424 35.3699C28.0547 35.4133 27.6642 35.4255 27.2747 35.4062C27.0504 35.4062 26.9352 35.4388 26.9414 35.7056C26.959 36.3922 26.9552 37.0838 26.9414 37.7678C26.9414 37.9846 26.9965 38.051 27.2246 38.0673C27.851 38.1111 28.1893 38.4519 28.1968 38.9844C28.1968 39.5369 27.861 39.8777 27.2045 39.9253C26.999 39.9416 26.9389 39.9967 26.9427 40.1972C26.9527 40.7747 26.9502 41.3523 26.9427 41.9311C26.9338 42.0066 26.9506 42.0829 26.9904 42.1477C27.0301 42.2125 27.0906 42.262 27.1619 42.2882C27.5816 42.4999 27.7783 42.8558 27.6731 43.3306C27.5678 43.8054 27.2083 44.0522 26.6708 44.0598C26.2952 44.0787 25.9188 44.0787 25.5432 44.0598C25.1974 44.0309 25.131 44.1688 25.1398 44.482C25.1611 45.2788 25.1536 46.0756 25.1398 46.8725C25.126 47.6693 24.789 48 23.9846 48C22.6566 48 21.329 48 20.0018 48C19.1999 48 18.8616 47.6668 18.8529 46.8649C18.8441 46.0631 18.8404 45.2362 18.8529 44.4294C18.8529 44.1462 18.7877 44.041 18.4908 44.0598C18.0861 44.0861 17.679 44.0735 17.273 44.0598C16.7719 44.0485 16.4148 43.7779 16.3158 43.3268C16.2588 43.1282 16.2759 42.9157 16.364 42.7288C16.452 42.5418 16.605 42.3933 16.7944 42.3108C17.0337 42.193 17.055 42.0464 17.045 41.8334C17.0362 41.4889 17.045 41.1456 17.045 40.8023C17.0387 40.3575 17.2079 39.8564 16.4186 39.8501C15.9913 39.8501 15.7545 39.3402 15.8021 38.8867C15.846 38.4594 16.178 38.0748 16.634 38.0823C17.0613 38.0898 17.06 37.8844 17.0525 37.5812C17.0387 36.9547 17.04 36.3283 17.0525 35.7019C17.0525 35.4814 16.9936 35.3937 16.7631 35.4062C16.4524 35.4225 16.1367 35.4187 15.8272 35.4062C15.2008 35.3849 14.7698 34.9865 14.7823 34.4427C14.7948 33.899 15.197 33.5494 15.8184 33.5319C15.9274 33.5319 16.0364 33.5319 16.1467 33.5319C17.1076 33.5319 17.1978 33.4066 17.055 32.4419C17.0174 32.1913 16.8383 32.2051 16.6917 32.155C13.2601 30.9848 10.4824 28.9313 8.38388 25.9771C2.41896 17.5828 5.68395 5.68808 15.0968 1.48595C16.6488 0.78864 18.2953 0.324248 19.983 0.107794C20.0932 0.0940122 20.2436 0.149137 20.305 -0.0112305L23.4998 4.4913e-05ZM21.9537 33.5382C22.8596 33.5382 23.7654 33.5269 24.6712 33.5382C24.9681 33.5382 25.0984 33.4768 25.0746 33.1523C25.0471 32.7764 25.0746 32.4005 25.0746 32.0247C25.0746 30.9648 25.1661 30.8407 26.1684 30.5438C34.5764 28.0506 38.9477 18.9948 35.6426 10.9376C31.9028 1.8355 20.1759 -1.06239 12.5898 5.24206C5.9671 10.7547 5.42838 20.507 11.4146 26.6799C13.2107 28.5466 15.4776 29.8937 17.9759 30.5789C18.7476 30.7944 18.9293 31.0374 18.9318 31.843C18.9318 32.2652 18.9581 32.6887 18.9243 33.1084C18.8942 33.4768 19.037 33.5507 19.3753 33.5419C20.2348 33.5219 21.0943 33.5382 21.9537 33.5382ZM21.9976 38.061C22.9185 38.061 23.8381 38.0535 24.7539 38.061C25.0045 38.061 25.0759 37.9896 25.0696 37.744C25.0546 37.0738 25.0571 36.4035 25.0696 35.7332C25.0696 35.4976 25.012 35.4037 24.7589 35.4049C22.9214 35.4141 21.0817 35.4141 19.24 35.4049C18.9895 35.4049 18.9193 35.4876 18.9243 35.7282C18.9368 36.3985 18.9431 37.07 18.9243 37.739C18.9155 38.0322 19.0496 38.0635 19.2839 38.061C20.1897 38.0548 21.0943 38.061 21.9976 38.061ZM21.9562 39.9403C21.0667 39.9403 20.1772 39.9529 19.2876 39.9341C18.9932 39.9341 18.9118 40.018 18.9256 40.3099C18.9481 40.8386 18.9406 41.3711 18.9256 41.9011C18.9256 42.1141 18.9744 42.2043 19.2087 42.2043C21.0663 42.1951 22.9239 42.1951 24.7815 42.2043C25.0107 42.2043 25.0759 42.1266 25.0696 41.9061C25.0571 41.4049 25.0446 40.9038 25.0696 40.4026C25.0897 40.0506 25.007 39.9165 24.6186 39.9303C23.7366 39.9591 22.8458 39.9366 21.9562 39.9366V39.9403ZM22.1354 44.0685C21.7207 44.0685 21.3837 44.0786 21.0354 44.0685C20.8249 44.0598 20.7209 44.1074 20.7284 44.3467C20.7418 44.8478 20.7418 45.349 20.7284 45.8501C20.7209 46.0781 20.8011 46.1458 21.0229 46.1395C21.4914 46.1245 21.96 46.1395 22.4273 46.1395C23.268 46.1395 23.2768 46.1395 23.2642 45.2813C23.2642 44.8954 23.4346 44.393 23.1916 44.1537C22.9485 43.9144 22.4499 44.0986 22.1354 44.0648V44.0685Z" fill="#292929"/>
<path d="M5.79413 26.2376C6.25393 26.2376 6.5396 26.4005 6.71375 26.7312C6.8879 27.062 6.8904 27.414 6.64233 27.6959C6.3067 28.0844 5.94234 28.4471 5.55234 28.7809C5.38634 28.9155 5.17632 28.9837 4.96294 28.9723C4.74956 28.961 4.54799 28.8709 4.39719 28.7195C4.08523 28.4364 3.96744 27.9678 4.19672 27.6158C4.54198 27.1158 4.97443 26.682 5.47339 26.3353C5.56756 26.2702 5.67967 26.2361 5.79413 26.2376Z" fill="#292929"/>
<path d="M38.1746 26.2363C38.3413 26.2283 38.5046 26.2859 38.6294 26.3967C39.0139 26.7373 39.3786 27.0996 39.7219 27.4817C39.8662 27.6596 39.9359 27.8864 39.9166 28.1147C39.8972 28.3429 39.7901 28.5547 39.6179 28.7057C39.4636 28.8647 39.2549 28.9594 39.0336 28.9708C38.8124 28.9822 38.595 28.9094 38.4252 28.7671C38.0478 28.4413 37.6944 28.0888 37.3677 27.7122C37.1172 27.4328 37.1109 27.0858 37.2788 26.7488C37.4467 26.4117 37.7261 26.2426 38.1746 26.2363Z" fill="#292929"/>
<path d="M42.1637 17.3548C41.9608 17.3548 41.7578 17.3661 41.5561 17.3548C41.3196 17.3523 41.0933 17.258 40.925 17.0918C40.7567 16.9256 40.6595 16.7005 40.654 16.464C40.6408 16.227 40.7203 15.9941 40.8758 15.8147C41.0314 15.6353 41.2506 15.5236 41.4872 15.5031C41.9538 15.4667 42.4225 15.4667 42.8891 15.5031C43.126 15.5198 43.3473 15.6269 43.5073 15.8023C43.6673 15.9777 43.7537 16.2079 43.7486 16.4452C43.7423 16.9552 43.3652 17.331 42.819 17.3598C42.601 17.3724 42.3817 17.3598 42.1637 17.3598V17.3548Z" fill="#292929"/>
<path d="M1.76238 17.3548C1.55941 17.3548 1.35644 17.3661 1.15472 17.3548C0.918341 17.3501 0.692788 17.2547 0.524678 17.0885C0.356568 16.9223 0.258749 16.6978 0.251408 16.4615C0.2386 16.2321 0.313563 16.0064 0.461086 15.8303C0.608609 15.6541 0.817648 15.5407 1.04574 15.5131C1.55764 15.4659 2.07291 15.4688 2.58424 15.5218C2.81209 15.5531 3.01886 15.6718 3.16078 15.8528C3.30271 16.0337 3.36867 16.2628 3.34474 16.4915C3.33379 16.7191 3.23742 16.9341 3.07483 17.0937C2.91225 17.2532 2.69543 17.3456 2.46773 17.3523C2.23094 17.3673 1.99666 17.3535 1.76238 17.3548Z" fill="#292929"/>
<path d="M5.04992 3.90007C5.23812 3.89122 5.42278 3.95337 5.56734 4.07422C5.94966 4.41685 6.31154 4.78165 6.65109 5.16672C6.94426 5.51627 6.86657 6.03747 6.54207 6.3557C6.39607 6.5113 6.19834 6.60833 5.98593 6.62863C5.77352 6.64892 5.56101 6.59109 5.38818 6.46595C4.9536 6.13576 4.56512 5.74895 4.23304 5.31581C4.13453 5.18215 4.07881 5.0218 4.07322 4.85586C4.06763 4.68991 4.11243 4.52616 4.20172 4.38618C4.28251 4.23311 4.40511 4.10615 4.55528 4.02009C4.70545 3.93402 4.877 3.8924 5.04992 3.90007Z" fill="#292929"/>
<path d="M38.1346 6.63777C37.7186 6.58891 37.4305 6.42979 37.2701 6.08776C37.1861 5.93598 37.1514 5.76187 37.1707 5.58949C37.19 5.41712 37.2624 5.255 37.3779 5.12556C37.6978 4.7641 38.0396 4.42267 38.4015 4.10321C38.5647 3.96727 38.7704 3.89282 38.9828 3.89282C39.1952 3.89282 39.4009 3.96727 39.5641 4.10321C39.8961 4.37383 40.0377 4.82612 39.8222 5.19196C39.494 5.74573 39.0103 6.1692 38.4879 6.53879C38.3775 6.59394 38.2576 6.62753 38.1346 6.63777Z" fill="#292929"/>
<path d="M22.0314 5.80322C27.9036 5.708 32.8324 10.6443 32.8061 16.5341C32.802 17.9485 32.5188 19.3482 31.9727 20.653C31.4266 21.9577 30.6285 23.1419 29.6239 24.1376C28.6193 25.1333 27.4282 25.921 26.1186 26.4555C24.8091 26.99 23.4069 27.2608 21.9925 27.2524C20.5705 27.2565 19.1618 26.979 17.8477 26.4358C16.5335 25.8925 15.34 25.0943 14.336 24.0873C13.332 23.0803 12.5374 21.8844 11.9982 20.5686C11.4589 19.2528 11.1856 17.8433 11.194 16.4213C11.2254 10.5854 16.1692 5.6629 22.0314 5.80322ZM26.0406 19.1062C26.0379 18.9259 25.9825 18.7503 25.8812 18.6012C25.7799 18.452 25.6371 18.3358 25.4705 18.2668C25.2995 18.1846 25.1064 18.16 24.9203 18.1968C24.7341 18.2337 24.565 18.3299 24.4381 18.471C23.724 19.1714 23.0111 19.873 22.3183 20.5946C22.0865 20.8377 21.9524 20.879 21.6918 20.6084C21.0291 19.903 20.335 19.2302 19.6434 18.5487C19.1786 18.0926 18.6286 18.0676 18.2339 18.461C17.8393 18.8544 17.858 19.4119 18.3153 19.8717C19.2926 20.8598 20.2761 21.8425 21.2659 22.8197C21.7407 23.2883 22.2393 23.2971 22.7104 22.8348C23.7252 21.8387 24.725 20.8302 25.7273 19.8203C25.8273 19.7305 25.9068 19.6202 25.9606 19.497C26.0144 19.3739 26.0413 19.2406 26.0393 19.1062H26.0406Z" fill="#069AEE"/>
<path d="M26.0393 19.1062C26.0419 19.2402 26.0159 19.3733 25.9629 19.4964C25.91 19.6196 25.8314 19.73 25.7324 19.8204C24.7301 20.8227 23.7278 21.8387 22.7155 22.8348C22.2444 23.2971 21.7457 23.2883 21.2709 22.8197C20.2795 21.845 19.2959 20.8623 18.3204 19.8717C17.8656 19.4119 17.8443 18.8531 18.239 18.461C18.6336 18.0688 19.1836 18.0926 19.6484 18.5487C20.34 19.2265 21.0341 19.903 21.6969 20.6084C21.9474 20.879 22.0853 20.8377 22.3233 20.5946C23.0161 19.873 23.729 19.1714 24.4432 18.471C24.57 18.3299 24.7392 18.2337 24.9253 18.1968C25.1114 18.16 25.3045 18.1846 25.4755 18.2668C25.641 18.3367 25.7824 18.4534 25.8825 18.6025C25.9827 18.7516 26.0372 18.9266 26.0393 19.1062Z" fill="white"/>
</g>
<defs>
<clipPath id="clip0_1_1510">
<rect width="43.4972" height="48" fill="white" transform="translate(0.251465)"/>
</clipPath>
</defs>
</svg>
