<svg width="56" height="48" viewBox="0 0 56 48" fill="none" xmlns="http://www.w3.org/2000/svg">
<g clip-path="url(#clip0_1_1544)">
<path d="M55.7916 28.231C55.5029 28.8083 55.0439 29.0537 54.3944 29.0032C53.9297 28.9671 53.4592 28.9959 52.9916 28.9959C52.2699 28.9959 52.2569 28.9959 52.2699 29.6945C52.3085 30.7635 51.9951 31.8156 51.3779 32.6894C50.3878 34.0721 49.0196 34.772 47.3367 34.7937C45.3218 34.8197 43.3065 34.8197 41.2907 34.7937C38.5152 34.7562 36.4036 32.61 36.3676 29.8345C36.3582 29.6547 36.3582 29.4745 36.3676 29.2947C36.3878 29.0551 36.2911 28.9902 36.0587 28.9916C34.7814 29.0003 33.5055 28.9916 32.1704 28.9916C32.4692 30.396 32.7564 31.7613 33.0494 33.1267C33.5055 35.2512 33.9789 37.3714 34.4148 39.5003C34.4999 39.9203 34.6645 40.0257 35.0816 40.0242C36.1583 40.0242 37.2465 39.9275 38.3146 40.0935C40.1808 40.3822 41.7237 42.0218 41.881 43.8981C41.9127 44.2921 41.9156 44.689 41.9185 45.0845C41.9185 45.8292 41.9185 45.8292 42.6402 45.8335C42.7663 45.8294 42.8926 45.8333 43.0183 45.8451C43.2894 45.8751 43.5397 46.0046 43.7207 46.2086C43.9018 46.4126 44.0007 46.6765 43.9983 46.9492C43.9863 47.2214 43.8728 47.4791 43.6802 47.6717C43.4876 47.8643 43.2298 47.9778 42.9577 47.9898C42.8134 47.9999 42.669 47.9898 42.5247 47.9898H13.6961C12.8301 47.9898 12.3077 47.59 12.3048 46.916C12.3019 46.242 12.8301 45.8335 13.6932 45.8292C14.3846 45.8292 14.3846 45.8292 14.3846 45.1076C14.3846 44.3859 14.373 43.7047 14.5996 43.0249C14.8858 42.1564 15.4363 41.3992 16.1742 40.8591C16.912 40.319 17.8002 40.023 18.7145 40.0127C19.6151 39.9939 20.5143 39.9983 21.4149 40.0127C21.6776 40.0127 21.7873 39.9362 21.8479 39.6764C22.5811 36.2346 23.322 32.7942 24.0706 29.3553C24.1485 29.0017 24.0172 28.9786 23.7329 28.9815C22.6345 28.9945 21.5362 29.0075 20.4393 28.9815C20.0366 28.97 19.9182 29.0724 19.937 29.4823C20.0077 30.9083 19.5906 32.1784 18.6005 33.2349C18.1345 33.7383 17.5674 34.1375 16.9364 34.4063C16.3054 34.6752 15.6246 34.8077 14.9388 34.7951C12.9942 34.8067 11.0505 34.8067 9.10786 34.7951C6.18805 34.7822 4.08516 32.6922 4.03897 29.7696C4.02743 28.9931 4.02743 28.9931 3.22639 28.9931C2.6866 28.9931 2.1468 29.0032 1.60701 28.9931C0.977726 28.9757 0.533177 28.5456 0.512971 27.9597C0.506821 27.6778 0.609882 27.4044 0.800592 27.1968C0.991302 26.9891 1.25491 26.8632 1.53629 26.8454C1.69815 26.8339 1.86051 26.831 2.02268 26.8368C19.4386 26.8368 36.8578 26.8334 54.2804 26.8267C54.9487 26.8267 55.4697 26.984 55.8046 27.5844L55.7916 28.231ZM28.1451 45.8393H38.5643C39.7565 45.8393 39.7564 45.8393 39.7478 44.637C39.7362 43.0494 38.8616 42.1834 37.2667 42.1834H26.9024C24.2399 42.1834 21.5766 42.1834 18.9122 42.1834C17.4689 42.1834 16.5669 43.0797 16.5423 44.5346C16.5544 44.7861 16.552 45.0381 16.5351 45.2894C16.4774 45.7224 16.6159 45.8581 17.0792 45.8552C20.7683 45.8278 24.456 45.8379 28.1451 45.8379V45.8393ZM28.1537 40.017C29.3776 40.017 30.6001 39.991 31.8226 40.03C32.296 40.0444 32.3148 39.8698 32.221 39.5075C32.1084 39.0745 32.0218 38.6329 31.9323 38.1941C31.3045 35.283 30.6723 32.3718 30.056 29.4564C29.9781 29.084 29.8366 28.9685 29.457 28.9873C28.7354 29.0219 28.0137 28.9974 27.3007 28.9974C26.3597 28.9974 26.3525 28.9974 26.1562 29.8995C25.4576 33.1079 24.7706 36.3193 24.0619 39.5263C23.9681 39.9463 24.072 40.0372 24.4877 40.0271C25.7088 39.9983 26.9312 40.0156 28.1537 40.0156V40.017ZM12.0031 28.9974C10.2048 28.9974 8.40642 28.9974 6.60806 28.9974C6.43487 28.9974 6.22847 28.9079 6.17507 29.2384C5.90373 31.1147 7.18538 32.6273 9.09054 32.636C10.925 32.6432 12.758 32.636 14.5924 32.636C16.6809 32.636 17.7821 31.5145 17.7778 29.439C17.7778 29.0335 17.6335 28.9815 17.2827 28.9858C15.5262 29.0046 13.764 28.9959 12.0031 28.9959V28.9974ZM44.3332 28.9974C42.5348 28.9974 40.7364 28.9974 38.9381 28.9974C38.7736 28.9974 38.5542 28.8863 38.5051 29.2254C38.2294 31.083 39.5313 32.6244 41.4191 32.6345C43.2709 32.6432 45.1241 32.6345 46.9759 32.6345C49.0066 32.6345 50.0934 31.5289 50.1093 29.5025C50.1093 29.0609 49.9649 28.9772 49.5666 28.9815C47.826 29.0075 46.0824 28.9959 44.3389 28.9959L44.3332 28.9974Z" fill="#292929"/>
<path d="M47.6355 14.804C47.9732 15.1172 48.4221 15.224 48.8103 15.4448C51.5771 17.0165 53.1936 19.3533 53.5285 22.5372C53.6252 23.4638 53.6064 23.4667 52.651 23.4667C47.1476 23.4667 41.6429 23.4667 36.1395 23.4768C35.6387 23.4768 35.4367 23.3801 35.4771 22.8345C35.6633 20.2611 36.7659 18.1669 38.6913 16.4767C39.5125 15.7551 40.4969 15.3221 41.448 14.8299C43.5134 15.6353 45.5701 15.6526 47.6355 14.804Z" fill="#069AEE"/>
<path d="M14.8407 14.8299C15.5364 15.2326 16.3013 15.5025 16.9566 15.9845C19.2846 17.705 20.6139 19.9738 20.8102 22.885C20.8405 23.318 20.7265 23.4753 20.2589 23.4738C14.5924 23.458 8.92746 23.4637 3.26105 23.4623C2.66063 23.4623 2.66064 23.4046 2.71116 22.7998C2.81317 21.3074 3.28433 19.8637 4.0823 18.5984C5.02981 17.0989 6.39482 15.9089 8.00953 15.1748C8.23324 15.0709 8.49158 15.0161 8.65323 14.801C10.7114 15.6526 12.7739 15.6353 14.8407 14.8299Z" fill="#069AEE"/>
<path d="M14.8407 14.8301C12.7739 15.6354 10.7114 15.6527 8.65323 14.8041C6.34394 13.6696 4.81693 11.9002 4.23816 9.36283C3.29713 5.24075 5.98889 1.10135 10.2048 0.187734C14.2619 -0.692682 18.4504 2.02939 19.289 6.09085C20.0207 9.6356 18.3566 13.0548 15.1149 14.6699C15.0211 14.7175 14.9316 14.7767 14.8407 14.8301ZM11.7708 13.2771C13.2352 13.2703 14.638 12.6867 15.6751 11.6528C16.7123 10.6189 17.3002 9.21795 17.3116 7.75354C17.3101 6.28042 16.7238 4.86816 15.6816 3.82705C14.6394 2.78594 13.2266 2.20115 11.7534 2.20115C10.2901 2.20532 8.88776 2.78757 7.85181 3.82108C6.81587 4.85458 6.23031 6.2556 6.22271 7.7189C6.22195 8.44817 6.36485 9.17045 6.64328 9.84448C6.9217 10.5185 7.33018 11.1311 7.84538 11.6472C8.36059 12.1634 8.97243 12.573 9.64596 12.8526C10.3195 13.1323 11.0415 13.2765 11.7708 13.2771Z" fill="#292929"/>
<path d="M47.6355 14.804C45.5759 15.6526 43.5134 15.6353 41.448 14.83C39.5039 13.8716 38.023 12.4629 37.3057 10.3817C36.2824 7.42003 36.8092 4.71239 38.9655 2.44351C41.1218 0.174634 43.8627 -0.544131 46.8575 0.414223C49.8524 1.37258 51.6421 3.51155 52.1299 6.63198C52.6466 9.93281 50.9479 13.1268 47.9645 14.625C47.8534 14.6842 47.7452 14.7462 47.6355 14.804ZM44.5223 13.277C45.2517 13.2762 45.9738 13.1317 46.6474 12.8517C47.321 12.5716 47.9327 12.1616 48.4477 11.645C48.9627 11.1284 49.3708 10.5154 49.6488 9.84092C49.9267 9.1665 50.0689 8.4439 50.0674 7.71445C50.0583 6.25102 49.4713 4.85048 48.4343 3.81782C47.3974 2.78516 45.9944 2.20405 44.5309 2.20104C41.4668 2.20104 38.954 4.71672 38.9785 7.75776C38.9907 9.22203 39.5794 10.6225 40.6171 11.6557C41.6549 12.6888 43.0579 13.2713 44.5223 13.277Z" fill="#292929"/>
<path d="M28.1378 12.5985C27.3989 12.5985 26.6614 12.5985 25.9238 12.5985C25.1863 12.5985 24.697 12.1756 24.6941 11.5377C24.6941 10.9257 25.156 10.4552 25.8574 10.4466C27.3873 10.4263 28.9168 10.4263 30.4457 10.4466C31.1428 10.4567 31.6003 10.9402 31.6003 11.5507C31.6003 12.1612 31.1241 12.587 30.4096 12.5956C29.649 12.6057 28.8927 12.5985 28.1378 12.5985Z" fill="#292929"/>
<path d="M28.1364 17.1118C27.383 17.1118 26.6282 17.1118 25.8762 17.1118C25.1776 17.1031 24.7057 16.6716 24.6941 16.0553C24.6826 15.439 25.1762 14.9598 25.8935 14.9555C27.4003 14.9488 28.9071 14.9488 30.4139 14.9555C31.1067 14.9555 31.583 15.4029 31.5946 16.0163C31.6061 16.6297 31.1197 17.1031 30.3966 17.1103C29.6432 17.1176 28.8898 17.1118 28.1364 17.1118Z" fill="#292929"/>
</g>
<defs>
<clipPath id="clip0_1_1544">
<rect width="55.2916" height="48" fill="white" transform="translate(0.5)"/>
</clipPath>
</defs>
</svg>
