<svg width="47" height="48" viewBox="0 0 47 48" fill="none" xmlns="http://www.w3.org/2000/svg">
<g clip-path="url(#clip0_1_1522)">
<path d="M27.6264 0C27.6264 1.15497 27.6364 2.31118 27.6264 3.4674C27.6264 3.76554 27.7091 3.89457 28.026 3.96847C30.5881 4.5422 33.0152 5.60559 35.1738 7.10016C36.3904 7.94408 37.5097 8.92047 38.5109 10.0114C38.7614 10.2857 38.9581 10.3033 39.2625 10.1166C40.0855 9.61553 40.9261 9.13451 41.7541 8.63594C42.0447 8.46182 42.2213 8.4017 42.4393 8.78877C43.6556 10.9471 44.9071 13.0867 46.156 15.2263C46.3226 15.5131 46.2625 15.6635 45.9856 15.8188C45.0749 16.3311 44.1805 16.8698 43.2698 17.3809C43.0481 17.5061 43.0068 17.6189 43.0844 17.8606C43.827 20.1788 44.1411 22.6128 44.0114 25.0435C43.9365 26.7385 43.6344 28.4158 43.1132 30.0304C43.0155 30.3273 43.0281 30.4851 43.34 30.6567C44.2444 31.1453 45.1175 31.6889 46.0132 32.1937C46.285 32.3466 46.3088 32.5019 46.161 32.7562C44.9083 34.912 43.6556 37.0667 42.4205 39.235C42.2338 39.5645 42.0835 39.5532 41.8079 39.3853C40.9812 38.8843 40.1381 38.412 39.3139 37.9085C38.9932 37.7118 38.7765 37.6917 38.4871 38.0062C36.7302 39.9166 34.6187 41.4674 32.2701 42.5722C30.9169 43.2119 29.4962 43.698 28.0348 44.0215C27.694 44.0979 27.6176 44.2482 27.6226 44.5614C27.6377 45.5635 27.6227 46.5657 27.6339 47.5603C27.6339 47.8672 27.5725 48.0038 27.2256 48.0025C24.7411 47.9891 22.2574 47.9891 19.7746 48.0025C19.4289 48.0025 19.3613 47.8685 19.365 47.5616C19.38 46.6083 19.3412 45.6537 19.3838 44.703C19.4051 44.2244 19.226 44.0616 18.7863 43.9651C16.3323 43.4115 14.0069 42.3935 11.9354 40.9662C10.6705 40.1069 9.50987 39.1035 8.47676 37.9761C8.25002 37.7256 8.08466 37.6817 7.77399 37.8746C6.91591 38.4108 6.02026 38.8931 5.1509 39.4079C4.90788 39.5507 4.7676 39.5632 4.6035 39.2751C3.36084 37.0955 2.10607 34.9242 0.839203 32.7612C0.690135 32.5107 0.713927 32.3528 0.98701 32.2C1.88267 31.6989 2.75955 31.1565 3.65898 30.6592C3.92705 30.5114 3.99844 30.3824 3.90199 30.0805C3.45597 28.6403 3.1703 27.1552 3.05016 25.6523C2.82508 23.0415 3.11536 20.412 3.9045 17.9133C3.98968 17.6377 3.94834 17.5074 3.69029 17.3633C2.77835 16.856 1.88767 16.3098 0.978233 15.7962C0.727698 15.6559 0.68135 15.5194 0.822902 15.2764C2.09813 13.0775 3.36794 10.877 4.63231 8.67477C4.80768 8.36787 4.96802 8.49313 5.15968 8.60337C6.03655 9.10444 6.92344 9.60551 7.7903 10.1329C8.07215 10.3058 8.2325 10.2932 8.45798 10.0515C9.71621 8.68547 11.1555 7.49819 12.7359 6.52268C14.5905 5.36601 16.6259 4.52847 18.7575 4.04488C19.2435 3.93715 19.4114 3.75051 19.3838 3.23942C19.3387 2.16337 19.3725 1.08482 19.375 0.00751574L27.6264 0ZM23.5076 9.00297C15.1898 9.09317 8.57195 15.6422 8.52936 23.9098C8.50945 25.8836 8.88174 27.8417 9.62463 29.6705C10.3675 31.4992 11.4662 33.1623 12.857 34.563C14.2477 35.9638 15.9028 37.0744 17.7262 37.8304C19.5495 38.5864 21.5049 38.9727 23.4788 38.967C25.4487 38.9796 27.4016 38.6016 29.2245 37.8548C31.0475 37.1081 32.7044 36.0075 34.0994 34.6166C35.4944 33.2256 36.5999 31.572 37.3519 29.7512C38.104 27.9305 38.4877 25.9787 38.4808 24.0088C38.4808 15.676 31.8329 9.0869 23.5076 9.00297Z" fill="#069AEE"/>
<path d="M15.2575 21.6086C15.8199 19.8624 16.7444 18.4694 18.0897 17.3558C21.973 14.1389 27.922 15.0521 30.6691 19.2924C31.0286 19.8474 30.9685 20.3697 30.5075 20.6967C30.0465 21.0236 29.4979 20.8909 29.1108 20.3334C27.5788 18.135 25.4693 17.0765 22.8073 17.3571C20.2043 17.6251 18.3879 19.0657 17.3194 21.4495C17.2918 21.5109 17.2304 21.5823 17.2955 21.6738C17.4997 21.6738 17.6075 21.5034 17.754 21.4082C18.2438 21.09 18.7637 21.1502 19.0881 21.5736C19.4126 21.997 19.3462 22.5431 18.8915 22.8964C18.0897 23.516 17.2784 24.1236 16.4575 24.719C15.9677 25.0735 15.4679 25.0034 15.0971 24.5249C14.4766 23.7232 13.8699 22.9114 13.277 22.0897C13.1984 21.9919 13.1406 21.879 13.1071 21.7581C13.0736 21.6371 13.0652 21.5106 13.0823 21.3863C13.0994 21.262 13.1417 21.1425 13.2067 21.0351C13.2716 20.9278 13.3577 20.8348 13.4599 20.7618C13.8707 20.4599 14.4269 20.5526 14.7852 20.9911C14.933 21.1702 15.0683 21.3606 15.2575 21.6086Z" fill="#292929"/>
<path d="M29.6783 26.2874C29.4991 26.4127 29.3275 26.538 29.1396 26.6495C28.9388 26.7749 28.6972 26.8178 28.4655 26.769C28.2338 26.7201 28.0301 26.5835 27.897 26.3876C27.7556 26.2058 27.6914 25.9756 27.7184 25.7468C27.7453 25.518 27.8612 25.3091 28.041 25.165C28.8987 24.4886 29.7726 23.833 30.6629 23.1983C31.0625 22.9152 31.556 23.0179 31.873 23.4263C32.5143 24.2514 33.1407 25.089 33.752 25.9392C33.8243 26.0368 33.8764 26.1479 33.9053 26.2659C33.9342 26.3839 33.9393 26.5065 33.9203 26.6265C33.9013 26.7465 33.8586 26.8615 33.7946 26.9649C33.7306 27.0682 33.6467 27.1577 33.5478 27.2282C33.3481 27.3691 33.1018 27.4278 32.8599 27.3921C32.6181 27.3565 32.3993 27.2291 32.2488 27.0365C32.0884 26.8486 31.9469 26.6432 31.7915 26.439C31.6212 26.5643 31.6299 26.7534 31.5685 26.905C30.2871 30.1018 27.9596 32.071 24.5436 32.4844C21.1275 32.8978 18.3516 31.5787 16.3573 28.7264C16.1932 28.4909 16.0592 28.2441 16.1068 27.9447C16.1271 27.765 16.2005 27.5953 16.3176 27.4574C16.4348 27.3196 16.5903 27.2197 16.7644 27.1706C16.943 27.1078 17.1372 27.1045 17.3178 27.1611C17.4984 27.2178 17.6559 27.3314 17.7666 27.485C18.0334 27.8107 18.2589 28.1702 18.5382 28.4871C21.7564 32.1011 27.7554 31.1065 29.6444 26.6507C29.6858 26.5543 29.7158 26.454 29.7509 26.3551L29.6783 26.2874Z" fill="#292929"/>
</g>
<defs>
<clipPath id="clip0_1_1522">
<rect width="45.5072" height="48" fill="white" transform="translate(0.74646)"/>
</clipPath>
</defs>
</svg>
