<svg width="48" height="48" viewBox="0 0 48 48" fill="none" xmlns="http://www.w3.org/2000/svg">
<g clip-path="url(#clip0_1_1537)">
<path d="M2.99806 9.62529e-05C3.48667 0.250664 3.76229 0.719225 4.10682 1.11387C4.45135 1.50851 4.79587 1.9232 5.13163 2.33288C5.53881 2.83402 5.56136 3.34517 5.2018 3.72103C4.81467 4.12444 4.34987 4.10439 3.79361 3.65964C3.75332 3.64427 3.71121 3.63416 3.66833 3.62957V4.0856C3.66833 17.3198 3.66456 30.5535 3.65704 43.7868C3.65704 44.2391 3.76104 44.3631 4.21582 44.3456C5.18301 44.3067 6.15395 44.3142 7.12114 44.3456C7.49699 44.3568 7.57968 44.2366 7.57968 43.877C7.56716 38.6903 7.56424 33.5031 7.57092 28.3155C7.57092 28.1589 7.57092 28.0023 7.57092 27.8469C7.59848 27.2919 7.95929 26.9173 8.4717 26.9048C8.98412 26.8923 9.37376 27.2531 9.43389 27.7968C9.44559 27.9523 9.44851 28.1083 9.44265 28.2641C9.44265 33.4526 9.44016 38.6397 9.43515 43.8256C9.43515 44.214 9.49278 44.3769 9.93628 44.3481C10.6072 44.3086 11.2799 44.3086 11.9508 44.3481C12.3142 44.3656 12.3806 44.2478 12.3806 43.9071C12.3697 38.6894 12.3668 33.4693 12.3718 28.2466C12.3718 28.09 12.3643 27.9334 12.3718 27.778C12.3852 27.5414 12.4885 27.3188 12.6606 27.1557C12.8327 26.9927 13.0606 26.9016 13.2976 26.901C13.5342 26.8976 13.7632 26.9848 13.9375 27.1449C14.1118 27.305 14.2181 27.5257 14.2348 27.7617C14.2498 27.9158 14.241 28.0737 14.241 28.2303C14.241 33.4333 14.241 38.6289 14.2298 43.8382C14.2298 44.2591 14.3375 44.3631 14.7434 44.3393C15.4124 44.303 16.0865 44.313 16.758 44.3393C17.0812 44.3518 17.1802 44.2654 17.1764 43.9309C17.1564 42.4788 17.1677 41.0255 17.1677 39.5723C17.1677 34.8541 17.1677 30.135 17.1677 25.4152C17.1517 25.1971 17.1686 24.978 17.2178 24.765C17.2776 24.5519 17.4113 24.3671 17.595 24.2436C17.7786 24.1201 18.0002 24.066 18.22 24.0909C18.4316 24.112 18.629 24.2067 18.7779 24.3585C18.9267 24.5103 19.0175 24.7096 19.0344 24.9216C19.0507 25.0919 19.0457 25.2648 19.0457 25.4365C19.0457 31.5603 19.0423 37.6846 19.0356 43.8094C19.0356 44.2466 19.1534 44.3631 19.5756 44.3406C20.2609 44.3055 20.9537 44.3155 21.6378 44.3406C21.9347 44.3506 22.0249 44.2491 21.9986 43.9647C21.9773 43.7317 21.9986 43.4961 21.9986 43.2619V20.8072C21.9986 20.6506 21.9986 20.4953 21.9986 20.3387C22.0299 19.7824 22.3907 19.4091 22.9006 19.3978C23.4105 19.3865 23.7989 19.7436 23.8591 20.2911C23.8729 20.4623 23.8766 20.6343 23.8703 20.806C23.8703 28.4775 23.8674 36.1491 23.8616 43.8206C23.8616 44.214 23.928 44.3681 24.3627 44.3406C25.0337 44.3023 25.7063 44.3023 26.3773 44.3406C26.7406 44.3581 26.8082 44.2391 26.8082 43.8983C26.7974 38.7583 26.7949 33.6179 26.8007 28.4771C26.8007 25.8044 26.8007 23.1317 26.8007 20.4589C26.8007 19.7461 27.3019 19.2775 27.9145 19.4128C28.1168 19.4498 28.3009 19.5536 28.4372 19.7076C28.5735 19.8616 28.6541 20.0569 28.6662 20.2623C28.6787 20.4177 28.6813 20.5738 28.6737 20.7296C28.6737 28.432 28.6704 36.1349 28.6637 43.8382C28.6637 44.2641 28.7777 44.3593 29.1786 44.3393C29.8339 44.3061 30.4903 44.3061 31.1456 44.3393C31.5214 44.3581 31.6079 44.2453 31.6066 43.8795C31.5928 39.8955 31.5979 35.9115 31.5979 31.9262C31.5805 31.708 31.603 31.4886 31.6643 31.2785C31.7328 31.0774 31.8679 30.9058 32.0471 30.7919C32.2264 30.678 32.4391 30.6287 32.6502 30.652C32.8616 30.6744 33.0585 30.7699 33.207 30.922C33.3554 31.0741 33.4461 31.2733 33.4633 31.4852C33.4796 31.6556 33.4734 31.8285 33.4734 32.0001C33.4734 35.9541 33.4734 39.9068 33.4646 43.8595C33.4646 44.2579 33.5761 44.3606 33.9582 44.338C34.6133 44.2998 35.2701 44.2998 35.9252 44.338C36.3674 44.3681 36.4263 44.2002 36.4263 43.8119C36.4113 40.8126 36.4175 37.8133 36.4188 34.8127C36.4137 34.6253 36.4213 34.4378 36.4413 34.2514C36.469 34.0337 36.5748 33.8335 36.7392 33.6881C36.9035 33.5426 37.1151 33.4619 37.3346 33.4609C37.5551 33.4533 37.7708 33.5268 37.9409 33.6673C38.111 33.8079 38.2238 34.0059 38.2579 34.2239C38.2855 34.4088 38.2969 34.5958 38.2918 34.7826C38.2918 37.8145 38.3005 40.8451 38.2918 43.8757C38.2918 44.2453 38.3857 44.3556 38.7553 44.338C39.4264 44.3036 40.0988 44.3036 40.7699 44.338C41.1808 44.3606 41.246 44.2128 41.2435 43.8369C41.2284 40.7913 41.2347 37.7444 41.2359 34.6975C41.2232 34.5259 41.2308 34.3535 41.2585 34.1838C41.2957 33.9898 41.3962 33.8136 41.5443 33.6828C41.6923 33.552 41.8795 33.474 42.0766 33.4609C42.28 33.4388 42.485 33.4854 42.6589 33.5932C42.8328 33.7011 42.9656 33.864 43.0363 34.056C43.1037 34.2644 43.1289 34.4842 43.1102 34.7025C43.1102 37.7494 43.1177 40.795 43.1014 43.8482C43.1014 44.224 43.1703 44.3932 43.5775 44.338C43.8606 44.3176 44.1447 44.315 44.4282 44.3305C44.3029 44.1789 44.2139 44.0937 44.1463 43.9973C44.0214 43.8247 43.9611 43.6137 43.9759 43.4012C43.9908 43.1886 44.0799 42.9881 44.2277 42.8346C44.5196 42.5189 45.0371 42.4049 45.3778 42.673C46.1884 43.3082 46.9865 43.9634 47.7432 44.6613C48.1529 45.0371 48.0639 45.6122 47.5991 46.0169C46.9309 46.6015 46.2498 47.1749 45.5557 47.737C45.1122 48.0991 44.6111 48.0753 44.2478 47.7082C43.8844 47.3411 43.8794 46.855 44.2478 46.4065C44.2828 46.3651 44.3668 46.3639 44.4595 46.3338C44.3897 46.2785 44.3089 46.2387 44.2224 46.2171C44.136 46.1955 44.046 46.1926 43.9584 46.2085C30.695 46.2085 17.4312 46.2039 4.16695 46.1948C3.75101 46.1948 3.5919 46.2962 3.66582 46.7059C3.67209 46.7684 3.67209 46.8314 3.66582 46.8938C3.65705 47.5816 3.29999 47.9976 2.72494 47.9913C2.14988 47.9851 1.80035 47.5503 1.79032 46.8738C1.78595 46.8271 1.78595 46.7801 1.79032 46.7335C1.85672 46.3263 1.72516 46.1309 1.2779 46.2023C0.7041 46.2925 0.289412 46.0369 -0.00500488 45.5558V44.9933C0.265608 44.4846 0.680308 44.2416 1.25787 44.3318C1.66754 44.3919 1.80034 44.2616 1.80034 43.8169C1.78614 30.5694 1.78239 17.3223 1.78907 4.07558V3.59324C0.99978 4.20838 0.583829 4.14323 -0.00500488 3.37023V2.80771C0.760479 1.82924 1.48588 0.816947 2.43303 -0.00366211L2.99806 9.62529e-05Z" fill="#292929"/>
<path d="M25.266 15.94C22.6664 15.9562 20.4413 13.8001 20.4376 11.0263C20.4376 8.39536 22.7064 6.16656 25.3675 6.19162C28.0648 6.21793 30.2335 8.47805 30.2047 11.1554C30.1771 13.7061 27.9583 16.0652 25.266 15.94Z" fill="#069AEE"/>
<path d="M38.8681 30.0018C36.2972 30.0895 33.982 27.783 34.0146 25.1258C34.0534 22.4434 36.2145 20.251 38.9006 20.251C39.5443 20.2534 40.1812 20.3828 40.7749 20.6317C41.3685 20.8806 41.9073 21.2441 42.3603 21.7014C42.8133 22.1587 43.1717 22.7009 43.415 23.2969C43.6582 23.8928 43.7816 24.5309 43.7779 25.1746C43.7604 27.8231 41.5216 30.1096 38.8681 30.0018Z" fill="#069AEE"/>
<path d="M6.9282 18.4655C6.80292 15.8621 9.11064 13.5481 11.8067 13.5794C14.3788 13.6107 16.664 15.6103 16.659 18.4755C16.6585 19.1161 16.5316 19.7502 16.2857 20.3417C16.0397 20.9332 15.6795 21.4703 15.2256 21.9223C14.7717 22.3743 14.2331 22.7324 13.6406 22.9759C13.0482 23.2194 12.4135 23.3437 11.7729 23.3415C9.04048 23.3653 6.78412 20.9574 6.9282 18.4655Z" fill="#069AEE"/>
</g>
<defs>
<clipPath id="clip0_1_1537">
<rect width="48.005" height="48" fill="white" transform="translate(-0.00250244)"/>
</clipPath>
</defs>
</svg>
