<svg width="146" height="42" viewBox="0 0 146 42" fill="none" xmlns="http://www.w3.org/2000/svg">
<g opacity="0.39">
<g opacity="0.2" clip-path="url(#clip0_1_1207)">
<path d="M2.15621 4.1857C3.31206 4.1857 4.24906 3.2487 4.24906 2.09285C4.24906 0.937002 3.31206 0 2.15621 0C1.00036 0 0.0633545 0.937002 0.0633545 2.09285C0.0633545 3.2487 1.00036 4.1857 2.15621 4.1857Z" fill="white"/>
<path d="M8.37142 10.5276C9.52727 10.5276 10.4643 9.59062 10.4643 8.43477C10.4643 7.27892 9.52727 6.34192 8.37142 6.34192C7.21557 6.34192 6.27856 7.27892 6.27856 8.43477C6.27856 9.59062 7.21557 10.5276 8.37142 10.5276Z" fill="white"/>
<path d="M8.37142 4.1857C9.52727 4.1857 10.4643 3.2487 10.4643 2.09285C10.4643 0.937002 9.52727 0 8.37142 0C7.21557 0 6.27856 0.937002 6.27856 2.09285C6.27856 3.2487 7.21557 4.1857 8.37142 4.1857Z" fill="white"/>
<path d="M14.7136 10.5276C15.8694 10.5276 16.8064 9.59062 16.8064 8.43477C16.8064 7.27892 15.8694 6.34192 14.7136 6.34192C13.5577 6.34192 12.6207 7.27892 12.6207 8.43477C12.6207 9.59062 13.5577 10.5276 14.7136 10.5276Z" fill="white"/>
<path d="M14.7136 16.7428C15.8694 16.7428 16.8064 15.8058 16.8064 14.65C16.8064 13.4941 15.8694 12.5571 14.7136 12.5571C13.5577 12.5571 12.6207 13.4941 12.6207 14.65C12.6207 15.8058 13.5577 16.7428 14.7136 16.7428Z" fill="white"/>
<path d="M14.7136 4.1857C15.8694 4.1857 16.8064 3.2487 16.8064 2.09285C16.8064 0.937002 15.8694 0 14.7136 0C13.5577 0 12.6207 0.937002 12.6207 2.09285C12.6207 3.2487 13.5577 4.1857 14.7136 4.1857Z" fill="white"/>
<path d="M20.9288 10.5276C22.0846 10.5276 23.0216 9.59062 23.0216 8.43477C23.0216 7.27892 22.0846 6.34192 20.9288 6.34192C19.7729 6.34192 18.8359 7.27892 18.8359 8.43477C18.8359 9.59062 19.7729 10.5276 20.9288 10.5276Z" fill="white"/>
<path d="M20.9288 16.7428C22.0846 16.7428 23.0216 15.8058 23.0216 14.65C23.0216 13.4941 22.0846 12.5571 20.9288 12.5571C19.7729 12.5571 18.8359 13.4941 18.8359 14.65C18.8359 15.8058 19.7729 16.7428 20.9288 16.7428Z" fill="white"/>
<path d="M20.9288 4.1857C22.0846 4.1857 23.0216 3.2487 23.0216 2.09285C23.0216 0.937002 22.0846 0 20.9288 0C19.7729 0 18.8359 0.937002 18.8359 2.09285C18.8359 3.2487 19.7729 4.1857 20.9288 4.1857Z" fill="white"/>
<path d="M27.144 10.5276C28.2998 10.5276 29.2369 9.59062 29.2369 8.43477C29.2369 7.27892 28.2998 6.34192 27.144 6.34192C25.9881 6.34192 25.0511 7.27892 25.0511 8.43477C25.0511 9.59062 25.9881 10.5276 27.144 10.5276Z" fill="white"/>
<path d="M27.144 16.7428C28.2998 16.7428 29.2369 15.8058 29.2369 14.65C29.2369 13.4941 28.2998 12.5571 27.144 12.5571C25.9881 12.5571 25.0511 13.4941 25.0511 14.65C25.0511 15.8058 25.9881 16.7428 27.144 16.7428Z" fill="white"/>
<path d="M20.9288 22.9582C22.0846 22.9582 23.0216 22.0212 23.0216 20.8653C23.0216 19.7095 22.0846 18.7725 20.9288 18.7725C19.7729 18.7725 18.8359 19.7095 18.8359 20.8653C18.8359 22.0212 19.7729 22.9582 20.9288 22.9582Z" fill="white"/>
<path d="M27.144 22.9582C28.2998 22.9582 29.2369 22.0212 29.2369 20.8653C29.2369 19.7095 28.2998 18.7725 27.144 18.7725C25.9881 18.7725 25.0511 19.7095 25.0511 20.8653C25.0511 22.0212 25.9881 22.9582 27.144 22.9582Z" fill="white"/>
<path d="M14.7136 29.3001C15.8695 29.3001 16.8066 28.3631 16.8066 27.2071C16.8066 26.0512 15.8695 25.1141 14.7136 25.1141C13.5577 25.1141 12.6206 26.0512 12.6206 27.2071C12.6206 28.3631 13.5577 29.3001 14.7136 29.3001Z" fill="white"/>
<path d="M20.9288 29.3001C22.0847 29.3001 23.0218 28.3631 23.0218 27.2071C23.0218 26.0512 22.0847 25.1141 20.9288 25.1141C19.7729 25.1141 18.8358 26.0512 18.8358 27.2071C18.8358 28.3631 19.7729 29.3001 20.9288 29.3001Z" fill="white"/>
<path d="M27.144 29.3001C28.2999 29.3001 29.237 28.3631 29.237 27.2071C29.237 26.0512 28.2999 25.1141 27.144 25.1141C25.9881 25.1141 25.051 26.0512 25.051 27.2071C25.051 28.3631 25.9881 29.3001 27.144 29.3001Z" fill="white"/>
<path d="M8.37142 35.523C9.52727 35.523 10.4643 34.586 10.4643 33.4301C10.4643 32.2743 9.52727 31.3373 8.37142 31.3373C7.21557 31.3373 6.27856 32.2743 6.27856 33.4301C6.27856 34.586 7.21557 35.523 8.37142 35.523Z" fill="white"/>
<path d="M14.7136 35.523C15.8694 35.523 16.8064 34.586 16.8064 33.4301C16.8064 32.2743 15.8694 31.3373 14.7136 31.3373C13.5577 31.3373 12.6207 32.2743 12.6207 33.4301C12.6207 34.586 13.5577 35.523 14.7136 35.523Z" fill="white"/>
<path d="M20.9288 35.523C22.0846 35.523 23.0216 34.586 23.0216 33.4301C23.0216 32.2743 22.0846 31.3373 20.9288 31.3373C19.7729 31.3373 18.8359 32.2743 18.8359 33.4301C18.8359 34.586 19.7729 35.523 20.9288 35.523Z" fill="white"/>
<path d="M27.144 35.523C28.2998 35.523 29.2369 34.586 29.2369 33.4301C29.2369 32.2743 28.2998 31.3373 27.144 31.3373C25.9881 31.3373 25.0511 32.2743 25.0511 33.4301C25.0511 34.586 25.9881 35.523 27.144 35.523Z" fill="white"/>
<path d="M33.6208 16.7428C34.7767 16.7428 35.7137 15.8058 35.7137 14.65C35.7137 13.4941 34.7767 12.5571 33.6208 12.5571C32.465 12.5571 31.528 13.4941 31.528 14.65C31.528 15.8058 32.465 16.7428 33.6208 16.7428Z" fill="white"/>
<path d="M33.6208 22.9582C34.7767 22.9582 35.7137 22.0212 35.7137 20.8653C35.7137 19.7095 34.7767 18.7725 33.6208 18.7725C32.465 18.7725 31.528 19.7095 31.528 20.8653C31.528 22.0212 32.465 22.9582 33.6208 22.9582Z" fill="white"/>
<path d="M33.6208 29.3001C34.7768 29.3001 35.7138 28.3631 35.7138 27.2071C35.7138 26.0512 34.7768 25.1141 33.6208 25.1141C32.4649 25.1141 31.5278 26.0512 31.5278 27.2071C31.5278 28.3631 32.4649 29.3001 33.6208 29.3001Z" fill="white"/>
<path d="M2.15623 42C3.31215 42 4.24922 41.0629 4.24922 39.907C4.24922 38.751 3.31215 37.814 2.15623 37.814C1.0003 37.814 0.0632324 38.751 0.0632324 39.907C0.0632324 41.0629 1.0003 42 2.15623 42Z" fill="white"/>
<path d="M8.37144 42C9.52736 42 10.4644 41.0629 10.4644 39.907C10.4644 38.751 9.52736 37.814 8.37144 37.814C7.21551 37.814 6.27844 38.751 6.27844 39.907C6.27844 41.0629 7.21551 42 8.37144 42Z" fill="white"/>
<path d="M14.7136 42C15.8695 42 16.8066 41.0629 16.8066 39.907C16.8066 38.751 15.8695 37.814 14.7136 37.814C13.5577 37.814 12.6206 38.751 12.6206 39.907C12.6206 41.0629 13.5577 42 14.7136 42Z" fill="white"/>
<path d="M20.9288 42C22.0847 42 23.0218 41.0629 23.0218 39.907C23.0218 38.751 22.0847 37.814 20.9288 37.814C19.7729 37.814 18.8358 38.751 18.8358 39.907C18.8358 41.0629 19.7729 42 20.9288 42Z" fill="white"/>
<path d="M39.8438 22.9582C40.9997 22.9582 41.9367 22.0212 41.9367 20.8653C41.9367 19.7095 40.9997 18.7725 39.8438 18.7725C38.688 18.7725 37.751 19.7095 37.751 20.8653C37.751 22.0212 38.688 22.9582 39.8438 22.9582Z" fill="white"/>
</g>
<g opacity="0.4" clip-path="url(#clip1_1_1207)">
<path d="M54.1562 4.1857C55.3121 4.1857 56.2491 3.2487 56.2491 2.09285C56.2491 0.937002 55.3121 0 54.1562 0C53.0004 0 52.0634 0.937002 52.0634 2.09285C52.0634 3.2487 53.0004 4.1857 54.1562 4.1857Z" fill="white"/>
<path d="M60.3714 10.5276C61.5273 10.5276 62.4643 9.59062 62.4643 8.43477C62.4643 7.27892 61.5273 6.34192 60.3714 6.34192C59.2156 6.34192 58.2786 7.27892 58.2786 8.43477C58.2786 9.59062 59.2156 10.5276 60.3714 10.5276Z" fill="white"/>
<path d="M60.3714 4.1857C61.5273 4.1857 62.4643 3.2487 62.4643 2.09285C62.4643 0.937002 61.5273 0 60.3714 0C59.2156 0 58.2786 0.937002 58.2786 2.09285C58.2786 3.2487 59.2156 4.1857 60.3714 4.1857Z" fill="white"/>
<path d="M66.7136 10.5276C67.8694 10.5276 68.8064 9.59062 68.8064 8.43477C68.8064 7.27892 67.8694 6.34192 66.7136 6.34192C65.5577 6.34192 64.6207 7.27892 64.6207 8.43477C64.6207 9.59062 65.5577 10.5276 66.7136 10.5276Z" fill="white"/>
<path d="M66.7136 16.7428C67.8694 16.7428 68.8064 15.8058 68.8064 14.65C68.8064 13.4941 67.8694 12.5571 66.7136 12.5571C65.5577 12.5571 64.6207 13.4941 64.6207 14.65C64.6207 15.8058 65.5577 16.7428 66.7136 16.7428Z" fill="white"/>
<path d="M66.7136 4.1857C67.8694 4.1857 68.8064 3.2487 68.8064 2.09285C68.8064 0.937002 67.8694 0 66.7136 0C65.5577 0 64.6207 0.937002 64.6207 2.09285C64.6207 3.2487 65.5577 4.1857 66.7136 4.1857Z" fill="white"/>
<path d="M72.9288 10.5276C74.0846 10.5276 75.0216 9.59062 75.0216 8.43477C75.0216 7.27892 74.0846 6.34192 72.9288 6.34192C71.7729 6.34192 70.8359 7.27892 70.8359 8.43477C70.8359 9.59062 71.7729 10.5276 72.9288 10.5276Z" fill="white"/>
<path d="M72.9288 16.7428C74.0846 16.7428 75.0216 15.8058 75.0216 14.65C75.0216 13.4941 74.0846 12.5571 72.9288 12.5571C71.7729 12.5571 70.8359 13.4941 70.8359 14.65C70.8359 15.8058 71.7729 16.7428 72.9288 16.7428Z" fill="white"/>
<path d="M72.9288 4.1857C74.0846 4.1857 75.0216 3.2487 75.0216 2.09285C75.0216 0.937002 74.0846 0 72.9288 0C71.7729 0 70.8359 0.937002 70.8359 2.09285C70.8359 3.2487 71.7729 4.1857 72.9288 4.1857Z" fill="white"/>
<path d="M79.144 10.5276C80.2998 10.5276 81.2369 9.59062 81.2369 8.43477C81.2369 7.27892 80.2998 6.34192 79.144 6.34192C77.9881 6.34192 77.0511 7.27892 77.0511 8.43477C77.0511 9.59062 77.9881 10.5276 79.144 10.5276Z" fill="white"/>
<path d="M79.144 16.7428C80.2998 16.7428 81.2369 15.8058 81.2369 14.65C81.2369 13.4941 80.2998 12.5571 79.144 12.5571C77.9881 12.5571 77.0511 13.4941 77.0511 14.65C77.0511 15.8058 77.9881 16.7428 79.144 16.7428Z" fill="white"/>
<path d="M72.9288 22.9582C74.0846 22.9582 75.0216 22.0212 75.0216 20.8653C75.0216 19.7095 74.0846 18.7725 72.9288 18.7725C71.7729 18.7725 70.8359 19.7095 70.8359 20.8653C70.8359 22.0212 71.7729 22.9582 72.9288 22.9582Z" fill="white"/>
<path d="M79.144 22.9582C80.2998 22.9582 81.2369 22.0212 81.2369 20.8653C81.2369 19.7095 80.2998 18.7725 79.144 18.7725C77.9881 18.7725 77.0511 19.7095 77.0511 20.8653C77.0511 22.0212 77.9881 22.9582 79.144 22.9582Z" fill="white"/>
<path d="M66.7136 29.3001C67.8695 29.3001 68.8066 28.3631 68.8066 27.2071C68.8066 26.0512 67.8695 25.1141 66.7136 25.1141C65.5577 25.1141 64.6206 26.0512 64.6206 27.2071C64.6206 28.3631 65.5577 29.3001 66.7136 29.3001Z" fill="white"/>
<path d="M72.9288 29.3001C74.0847 29.3001 75.0218 28.3631 75.0218 27.2071C75.0218 26.0512 74.0847 25.1141 72.9288 25.1141C71.7729 25.1141 70.8358 26.0512 70.8358 27.2071C70.8358 28.3631 71.7729 29.3001 72.9288 29.3001Z" fill="white"/>
<path d="M79.144 29.3001C80.2999 29.3001 81.237 28.3631 81.237 27.2071C81.237 26.0512 80.2999 25.1141 79.144 25.1141C77.9881 25.1141 77.051 26.0512 77.051 27.2071C77.051 28.3631 77.9881 29.3001 79.144 29.3001Z" fill="white"/>
<path d="M60.3714 35.523C61.5273 35.523 62.4643 34.586 62.4643 33.4301C62.4643 32.2743 61.5273 31.3373 60.3714 31.3373C59.2156 31.3373 58.2786 32.2743 58.2786 33.4301C58.2786 34.586 59.2156 35.523 60.3714 35.523Z" fill="white"/>
<path d="M66.7136 35.523C67.8694 35.523 68.8064 34.586 68.8064 33.4301C68.8064 32.2743 67.8694 31.3373 66.7136 31.3373C65.5577 31.3373 64.6207 32.2743 64.6207 33.4301C64.6207 34.586 65.5577 35.523 66.7136 35.523Z" fill="white"/>
<path d="M72.9288 35.523C74.0846 35.523 75.0216 34.586 75.0216 33.4301C75.0216 32.2743 74.0846 31.3373 72.9288 31.3373C71.7729 31.3373 70.8359 32.2743 70.8359 33.4301C70.8359 34.586 71.7729 35.523 72.9288 35.523Z" fill="white"/>
<path d="M79.144 35.523C80.2998 35.523 81.2369 34.586 81.2369 33.4301C81.2369 32.2743 80.2998 31.3373 79.144 31.3373C77.9881 31.3373 77.0511 32.2743 77.0511 33.4301C77.0511 34.586 77.9881 35.523 79.144 35.523Z" fill="white"/>
<path d="M85.6208 16.7428C86.7767 16.7428 87.7137 15.8058 87.7137 14.65C87.7137 13.4941 86.7767 12.5571 85.6208 12.5571C84.465 12.5571 83.528 13.4941 83.528 14.65C83.528 15.8058 84.465 16.7428 85.6208 16.7428Z" fill="white"/>
<path d="M85.6208 22.9582C86.7767 22.9582 87.7137 22.0212 87.7137 20.8653C87.7137 19.7095 86.7767 18.7725 85.6208 18.7725C84.465 18.7725 83.528 19.7095 83.528 20.8653C83.528 22.0212 84.465 22.9582 85.6208 22.9582Z" fill="white"/>
<path d="M85.6208 29.3001C86.7768 29.3001 87.7138 28.3631 87.7138 27.2071C87.7138 26.0512 86.7768 25.1141 85.6208 25.1141C84.4649 25.1141 83.5278 26.0512 83.5278 27.2071C83.5278 28.3631 84.4649 29.3001 85.6208 29.3001Z" fill="white"/>
<path d="M54.1562 42C55.3122 42 56.2492 41.0629 56.2492 39.907C56.2492 38.751 55.3122 37.814 54.1562 37.814C53.0003 37.814 52.0632 38.751 52.0632 39.907C52.0632 41.0629 53.0003 42 54.1562 42Z" fill="white"/>
<path d="M60.3714 42C61.5274 42 62.4644 41.0629 62.4644 39.907C62.4644 38.751 61.5274 37.814 60.3714 37.814C59.2155 37.814 58.2784 38.751 58.2784 39.907C58.2784 41.0629 59.2155 42 60.3714 42Z" fill="white"/>
<path d="M66.7136 42C67.8695 42 68.8066 41.0629 68.8066 39.907C68.8066 38.751 67.8695 37.814 66.7136 37.814C65.5577 37.814 64.6206 38.751 64.6206 39.907C64.6206 41.0629 65.5577 42 66.7136 42Z" fill="white"/>
<path d="M72.9288 42C74.0847 42 75.0218 41.0629 75.0218 39.907C75.0218 38.751 74.0847 37.814 72.9288 37.814C71.7729 37.814 70.8358 38.751 70.8358 39.907C70.8358 41.0629 71.7729 42 72.9288 42Z" fill="white"/>
<path d="M91.8438 22.9582C92.9997 22.9582 93.9367 22.0212 93.9367 20.8653C93.9367 19.7095 92.9997 18.7725 91.8438 18.7725C90.688 18.7725 89.751 19.7095 89.751 20.8653C89.751 22.0212 90.688 22.9582 91.8438 22.9582Z" fill="white"/>
</g>
<g opacity="0.6" clip-path="url(#clip2_1_1207)">
<path d="M106.156 4.1857C107.312 4.1857 108.249 3.2487 108.249 2.09285C108.249 0.937002 107.312 0 106.156 0C105 0 104.063 0.937002 104.063 2.09285C104.063 3.2487 105 4.1857 106.156 4.1857Z" fill="white"/>
<path d="M112.371 10.5276C113.527 10.5276 114.464 9.59062 114.464 8.43477C114.464 7.27892 113.527 6.34192 112.371 6.34192C111.216 6.34192 110.279 7.27892 110.279 8.43477C110.279 9.59062 111.216 10.5276 112.371 10.5276Z" fill="white"/>
<path d="M112.371 4.1857C113.527 4.1857 114.464 3.2487 114.464 2.09285C114.464 0.937002 113.527 0 112.371 0C111.216 0 110.279 0.937002 110.279 2.09285C110.279 3.2487 111.216 4.1857 112.371 4.1857Z" fill="white"/>
<path d="M118.714 10.5276C119.869 10.5276 120.806 9.59062 120.806 8.43477C120.806 7.27892 119.869 6.34192 118.714 6.34192C117.558 6.34192 116.621 7.27892 116.621 8.43477C116.621 9.59062 117.558 10.5276 118.714 10.5276Z" fill="white"/>
<path d="M118.714 16.7428C119.869 16.7428 120.806 15.8058 120.806 14.65C120.806 13.4941 119.869 12.5571 118.714 12.5571C117.558 12.5571 116.621 13.4941 116.621 14.65C116.621 15.8058 117.558 16.7428 118.714 16.7428Z" fill="white"/>
<path d="M118.714 4.1857C119.869 4.1857 120.806 3.2487 120.806 2.09285C120.806 0.937002 119.869 0 118.714 0C117.558 0 116.621 0.937002 116.621 2.09285C116.621 3.2487 117.558 4.1857 118.714 4.1857Z" fill="white"/>
<path d="M124.929 10.5276C126.085 10.5276 127.022 9.59062 127.022 8.43477C127.022 7.27892 126.085 6.34192 124.929 6.34192C123.773 6.34192 122.836 7.27892 122.836 8.43477C122.836 9.59062 123.773 10.5276 124.929 10.5276Z" fill="white"/>
<path d="M124.929 16.7428C126.085 16.7428 127.022 15.8058 127.022 14.65C127.022 13.4941 126.085 12.5571 124.929 12.5571C123.773 12.5571 122.836 13.4941 122.836 14.65C122.836 15.8058 123.773 16.7428 124.929 16.7428Z" fill="white"/>
<path d="M124.929 4.1857C126.085 4.1857 127.022 3.2487 127.022 2.09285C127.022 0.937002 126.085 0 124.929 0C123.773 0 122.836 0.937002 122.836 2.09285C122.836 3.2487 123.773 4.1857 124.929 4.1857Z" fill="white"/>
<path d="M131.144 10.5276C132.3 10.5276 133.237 9.59062 133.237 8.43477C133.237 7.27892 132.3 6.34192 131.144 6.34192C129.988 6.34192 129.051 7.27892 129.051 8.43477C129.051 9.59062 129.988 10.5276 131.144 10.5276Z" fill="white"/>
<path d="M131.144 16.7428C132.3 16.7428 133.237 15.8058 133.237 14.65C133.237 13.4941 132.3 12.5571 131.144 12.5571C129.988 12.5571 129.051 13.4941 129.051 14.65C129.051 15.8058 129.988 16.7428 131.144 16.7428Z" fill="white"/>
<path d="M124.929 22.9582C126.085 22.9582 127.022 22.0212 127.022 20.8653C127.022 19.7095 126.085 18.7725 124.929 18.7725C123.773 18.7725 122.836 19.7095 122.836 20.8653C122.836 22.0212 123.773 22.9582 124.929 22.9582Z" fill="white"/>
<path d="M131.144 22.9582C132.3 22.9582 133.237 22.0212 133.237 20.8653C133.237 19.7095 132.3 18.7725 131.144 18.7725C129.988 18.7725 129.051 19.7095 129.051 20.8653C129.051 22.0212 129.988 22.9582 131.144 22.9582Z" fill="white"/>
<path d="M118.714 29.3001C119.87 29.3001 120.807 28.3631 120.807 27.2071C120.807 26.0512 119.87 25.1141 118.714 25.1141C117.558 25.1141 116.621 26.0512 116.621 27.2071C116.621 28.3631 117.558 29.3001 118.714 29.3001Z" fill="white"/>
<path d="M124.929 29.3001C126.085 29.3001 127.022 28.3631 127.022 27.2071C127.022 26.0512 126.085 25.1141 124.929 25.1141C123.773 25.1141 122.836 26.0512 122.836 27.2071C122.836 28.3631 123.773 29.3001 124.929 29.3001Z" fill="white"/>
<path d="M131.144 29.3001C132.3 29.3001 133.237 28.3631 133.237 27.2071C133.237 26.0512 132.3 25.1141 131.144 25.1141C129.988 25.1141 129.051 26.0512 129.051 27.2071C129.051 28.3631 129.988 29.3001 131.144 29.3001Z" fill="white"/>
<path d="M112.371 35.523C113.527 35.523 114.464 34.586 114.464 33.4301C114.464 32.2743 113.527 31.3373 112.371 31.3373C111.216 31.3373 110.279 32.2743 110.279 33.4301C110.279 34.586 111.216 35.523 112.371 35.523Z" fill="white"/>
<path d="M118.714 35.523C119.869 35.523 120.806 34.586 120.806 33.4301C120.806 32.2743 119.869 31.3373 118.714 31.3373C117.558 31.3373 116.621 32.2743 116.621 33.4301C116.621 34.586 117.558 35.523 118.714 35.523Z" fill="white"/>
<path d="M124.929 35.523C126.085 35.523 127.022 34.586 127.022 33.4301C127.022 32.2743 126.085 31.3373 124.929 31.3373C123.773 31.3373 122.836 32.2743 122.836 33.4301C122.836 34.586 123.773 35.523 124.929 35.523Z" fill="white"/>
<path d="M131.144 35.523C132.3 35.523 133.237 34.586 133.237 33.4301C133.237 32.2743 132.3 31.3373 131.144 31.3373C129.988 31.3373 129.051 32.2743 129.051 33.4301C129.051 34.586 129.988 35.523 131.144 35.523Z" fill="white"/>
<path d="M137.621 16.7428C138.777 16.7428 139.714 15.8058 139.714 14.65C139.714 13.4941 138.777 12.5571 137.621 12.5571C136.465 12.5571 135.528 13.4941 135.528 14.65C135.528 15.8058 136.465 16.7428 137.621 16.7428Z" fill="white"/>
<path d="M137.621 22.9582C138.777 22.9582 139.714 22.0212 139.714 20.8653C139.714 19.7095 138.777 18.7725 137.621 18.7725C136.465 18.7725 135.528 19.7095 135.528 20.8653C135.528 22.0212 136.465 22.9582 137.621 22.9582Z" fill="white"/>
<path d="M137.621 29.3001C138.777 29.3001 139.714 28.3631 139.714 27.2071C139.714 26.0512 138.777 25.1141 137.621 25.1141C136.465 25.1141 135.528 26.0512 135.528 27.2071C135.528 28.3631 136.465 29.3001 137.621 29.3001Z" fill="white"/>
<path d="M106.156 42C107.312 42 108.249 41.0629 108.249 39.907C108.249 38.751 107.312 37.814 106.156 37.814C105 37.814 104.063 38.751 104.063 39.907C104.063 41.0629 105 42 106.156 42Z" fill="white"/>
<path d="M112.371 42C113.527 42 114.464 41.0629 114.464 39.907C114.464 38.751 113.527 37.814 112.371 37.814C111.216 37.814 110.278 38.751 110.278 39.907C110.278 41.0629 111.216 42 112.371 42Z" fill="white"/>
<path d="M118.714 42C119.87 42 120.807 41.0629 120.807 39.907C120.807 38.751 119.87 37.814 118.714 37.814C117.558 37.814 116.621 38.751 116.621 39.907C116.621 41.0629 117.558 42 118.714 42Z" fill="white"/>
<path d="M124.929 42C126.085 42 127.022 41.0629 127.022 39.907C127.022 38.751 126.085 37.814 124.929 37.814C123.773 37.814 122.836 38.751 122.836 39.907C122.836 41.0629 123.773 42 124.929 42Z" fill="white"/>
<path d="M143.844 22.9582C145 22.9582 145.937 22.0212 145.937 20.8653C145.937 19.7095 145 18.7725 143.844 18.7725C142.688 18.7725 141.751 19.7095 141.751 20.8653C141.751 22.0212 142.688 22.9582 143.844 22.9582Z" fill="white"/>
</g>
</g>
<defs>
<clipPath id="clip0_1_1207">
<rect width="42" height="42" fill="white"/>
</clipPath>
<clipPath id="clip1_1_1207">
<rect width="42" height="42" fill="white" transform="translate(52)"/>
</clipPath>
<clipPath id="clip2_1_1207">
<rect width="42" height="42" fill="white" transform="translate(104)"/>
</clipPath>
</defs>
</svg>
