<svg width="15" height="18" viewBox="0 0 15 18" fill="none" xmlns="http://www.w3.org/2000/svg">
<path d="M11.11 17.3335H4.0575C3.12483 17.3429 2.22653 16.9819 1.55962 16.3298C0.892716 15.6778 0.511648 14.7878 0.5 13.8552L0.5 9.74018C0.50589 8.99715 0.750086 8.27561 1.19667 7.68172C1.64325 7.08783 2.26863 6.65294 2.98083 6.44102V5.16685C2.99665 3.96268 3.48817 2.81365 4.34811 1.97058C5.20806 1.1275 6.36658 0.658823 7.57083 0.666849C8.78887 0.661168 9.96044 1.13398 10.8333 1.98352C11.2614 2.39583 11.6018 2.89029 11.8342 3.43728C12.0666 3.98427 12.1862 4.57254 12.1858 5.16685V6.44102C12.898 6.65294 13.5234 7.08783 13.97 7.68172C14.4166 8.27561 14.6608 8.99715 14.6667 9.74018V13.8543C14.6552 14.787 14.2744 15.677 13.6076 16.3293C12.9409 16.9815 12.0427 17.3426 11.11 17.3335ZM7.58333 10.1535C7.39009 10.1515 7.20395 10.2263 7.06582 10.3615C6.92769 10.4966 6.84887 10.6811 6.84667 10.8743V12.7127C6.84667 12.9092 6.92472 13.0976 7.06365 13.2365C7.20259 13.3755 7.39102 13.4535 7.5875 13.4535C7.78398 13.4535 7.97242 13.3755 8.11135 13.2365C8.25028 13.0976 8.32833 12.9092 8.32833 12.7127V10.8743C8.32483 10.6801 8.24444 10.4951 8.10479 10.36C7.96514 10.2249 7.77763 10.1506 7.58333 10.1535ZM7.59167 2.11602C6.77587 2.1064 5.98933 2.41955 5.40338 2.98724C4.81743 3.55493 4.47955 4.33116 4.46333 5.14685V6.26185H10.7042V5.16685C10.6999 4.76186 10.6159 4.36168 10.457 3.98916C10.2981 3.61664 10.0673 3.27909 9.77785 2.99577C9.48843 2.71246 9.14602 2.48895 8.7702 2.338C8.39437 2.18705 7.99249 2.11162 7.5875 2.11602H7.59167Z" fill="white"/>
</svg>
