<svg width="40" height="40" viewBox="0 0 40 40" fill="none" xmlns="http://www.w3.org/2000/svg">
<g clip-path="url(#clip0_74_1070)">
<path d="M20.0001 39.9998C21.728 39.9998 23.2201 38.974 23.9017 37.4999H16.0985C16.7801 38.974 18.2721 39.9998 20.0001 39.9998ZM18.8282 29.6874V20.2103C16.157 19.7385 14.1407 17.6867 14.1407 15.2344C14.1407 14.5872 14.6654 14.0625 15.3126 14.0625C15.9598 14.0625 16.4845 14.5872 16.4845 15.2344C16.4845 16.4226 17.4642 17.4357 18.8282 17.8119V0.801011C18.0122 0.277807 17.0632 -0.000177725 16.0939 7.83012e-05C13.6294 7.83012e-05 11.5272 1.77952 11.099 4.18115C8.27694 5.00646 6.32828 7.58761 6.32828 10.5469C6.32828 12.1292 6.88844 13.6414 7.91296 14.8437C6.88851 16.0461 6.32828 17.5583 6.32828 19.1406C6.32828 22.1 8.27694 24.681 11.099 25.5063C11.5272 27.9079 13.6294 29.6874 16.0939 29.6874H18.8282ZM14.1407 33.203C14.1407 34.2817 15.0152 35.1561 16.0939 35.1561H23.9063C24.985 35.1561 25.8594 34.2817 25.8594 33.203V32.0311H14.1407V33.203ZM28.901 4.18107C28.4729 1.77952 26.3707 1.76691e-07 23.9062 1.76691e-07C22.9369 -0.000255849 21.9879 0.277729 21.1719 0.800933V9.47721C23.8431 9.949 25.8593 12.0008 25.8593 14.4531C25.8593 15.1003 25.3347 15.625 24.6875 15.625C24.0403 15.625 23.5156 15.1003 23.5156 14.4531C23.5156 13.2649 22.5358 12.2518 21.1719 11.8756V29.6874H23.9062C26.3707 29.6874 28.4729 27.908 28.901 25.5063C31.7231 24.681 33.6718 22.0999 33.6718 19.1406C33.6718 17.5583 33.1116 16.0461 32.0872 14.8437C33.1116 13.6414 33.6718 12.1292 33.6718 10.5469C33.6719 7.58753 31.7231 5.00646 28.901 4.18107ZM36.4854 6.64082C36.1067 6.64082 35.7351 6.45754 35.5092 6.11879C35.1502 5.58028 35.2958 4.85271 35.8343 4.49372L38.178 2.93123C38.7165 2.57209 39.4441 2.71772 39.8031 3.25623C40.1621 3.79474 40.0165 4.52232 39.478 4.8813L37.1343 6.44379C36.9423 6.57231 36.7164 6.64088 36.4854 6.64082ZM38.827 26.172C38.5959 26.172 38.3701 26.1035 38.178 25.975L35.8343 24.4125C35.2958 24.0535 35.1502 23.326 35.5092 22.7874C35.8683 22.2489 36.5959 22.1035 37.1343 22.4624L39.478 24.0249C40.0165 24.3839 40.1621 25.1115 39.8031 25.65C39.5773 25.9887 39.2057 26.172 38.827 26.172ZM3.51471 6.64082C3.28365 6.6409 3.05777 6.57235 2.86573 6.44387L0.521989 4.88138C-0.0165234 4.5224 -0.162069 3.79482 0.196913 3.25631C0.555973 2.71772 1.28363 2.57225 1.82198 2.93131L4.16572 4.4938C4.70423 4.85278 4.84978 5.58036 4.49079 6.11887C4.26501 6.45754 3.89338 6.64082 3.51471 6.64082ZM1.17308 26.172C0.794409 26.172 0.422771 25.9887 0.196913 25.6499C-0.162069 25.1114 -0.0165234 24.3838 0.521989 24.0249L2.86573 22.4624C3.40416 22.1032 4.13181 22.2489 4.49079 22.7874C4.84978 23.3259 4.70423 24.0535 4.16572 24.4124L1.82198 25.9749C1.62998 26.1034 1.40412 26.172 1.17308 26.172ZM3.5158 15.625H1.17206C0.52488 15.625 0.00019521 15.1003 0.00019521 14.4531C0.00019521 13.8059 0.52488 13.2813 1.17206 13.2813H3.5158C4.16298 13.2813 4.68767 13.8059 4.68767 14.4531C4.68767 15.1003 4.16298 15.625 3.5158 15.625ZM38.8281 15.625H36.4844C35.8372 15.625 35.3125 15.1003 35.3125 14.4531C35.3125 13.8059 35.8372 13.2813 36.4844 13.2813H38.8281C39.4753 13.2813 40 13.8059 40 14.4531C40 15.1003 39.4753 15.625 38.8281 15.625Z" fill="#048AE2"/>
</g>
<defs>
<clipPath id="clip0_74_1070">
<rect width="40" height="40" fill="white"/>
</clipPath>
</defs>
</svg>
