<svg width="31" height="31" viewBox="0 0 31 31" fill="none" xmlns="http://www.w3.org/2000/svg">
<g clip-path="url(#clip0_1_1432)">
<path fill-rule="evenodd" clip-rule="evenodd" d="M15.0244 15.9767C16.5981 16.2725 18.1279 16.2043 19.5108 14.9615C22.4795 16.4686 26.2009 15.982 28.6829 13.4999C31.7724 10.4122 31.7724 5.40596 28.6829 2.31652C25.5952 -0.771195 20.589 -0.771195 17.5013 2.31652C15.0192 4.79861 14.5326 8.51997 16.0396 11.4887C17.0881 13.6504 15.8821 14.9649 15.0244 15.9767Z" fill="#069AEE"/>
<path d="M18.7088 30.9993C15.9518 30.9993 13.3667 29.9327 11.4299 27.9958L7.2167 23.7844L3.00336 19.5711C1.0666 17.6343 0 15.0492 0 12.2921C0 9.5349 1.0666 6.9498 3.00342 5.01298L3.84412 4.17406C4.36161 3.65657 5.05238 3.37134 5.78891 3.37134H5.79039C6.52661 3.37171 7.21664 3.65713 7.73339 4.17499L11.3861 7.82762C12.4584 8.89996 12.4583 10.6447 11.3861 11.7169L9.43604 13.6669C9.16155 13.9414 9.01038 14.3088 9.01038 14.7015C9.01038 15.0942 9.16155 15.4615 9.43604 15.736L15.2649 21.5631C15.5399 21.8386 15.9068 21.9902 16.2987 21.9902C16.6905 21.9902 17.0575 21.8387 17.3318 21.5636L19.2823 19.6132C19.8002 19.0953 20.4911 18.8101 21.2278 18.8101C21.9646 18.8101 22.6554 19.0953 23.1734 19.6132L26.8265 23.2663C27.3444 23.7842 27.6296 24.4752 27.6296 25.2118C27.6296 25.9485 27.3444 26.6394 26.8265 27.1574L25.9858 27.9962C24.0504 29.9326 21.4658 30.9993 18.7088 30.9993ZM5.78891 4.60646C5.38233 4.60646 5.00162 4.76325 4.717 5.04787L3.8763 5.88678C0.344644 9.41844 0.344643 15.1657 3.87679 18.6978L8.09007 22.9111L12.3033 27.1225C14.0069 28.8262 16.2817 29.7643 18.7089 29.7643C21.136 29.7643 23.4103 28.8262 25.113 27.1228L25.9537 26.2838C26.2379 25.9995 26.3946 25.6188 26.3946 25.2121C26.3946 24.8054 26.2379 24.4245 25.9532 24.1399L22.3001 20.4867C22.0155 20.2021 21.6347 20.0453 21.228 20.0453C20.8212 20.0453 20.4404 20.2021 20.1558 20.4867L18.2058 22.4367C17.6985 22.9451 17.021 23.2254 16.2988 23.2254C15.5766 23.2254 14.8991 22.9451 14.3913 22.4362L8.56298 16.6096C8.05512 16.1018 7.7755 15.4242 7.7755 14.7017C7.7755 13.9791 8.05512 13.3015 8.56292 12.7937L10.5129 10.8438C11.1036 10.253 11.1036 9.29184 10.5129 8.70111L6.85977 5.04806C6.57577 4.76344 6.19599 4.60683 5.7899 4.60664C5.7894 4.60646 5.78916 4.60646 5.78891 4.60646Z" fill="white"/>
<path d="M23.6837 26.3109C23.5256 26.3109 23.3676 26.2506 23.247 26.13L20.3116 23.1946C20.0705 22.9535 20.0705 22.5624 20.3116 22.3212C20.5528 22.0801 20.9437 22.0801 21.185 22.3212L24.1204 25.2567C24.3615 25.4978 24.3615 25.8888 24.1204 26.13C23.9998 26.2506 23.8418 26.3109 23.6837 26.3109Z" fill="white"/>
<path d="M8.24319 10.8702C8.08516 10.8702 7.92708 10.81 7.80654 10.6894L4.87104 7.75394C4.6299 7.51279 4.6299 7.12177 4.87104 6.88057C5.11219 6.63942 5.50321 6.63942 5.74442 6.88057L8.67991 9.81606C8.92105 10.0572 8.92105 10.4482 8.67991 10.6894C8.5593 10.81 8.40122 10.8702 8.24319 10.8702Z" fill="white"/>
<path d="M24.5693 12.5665H21.6146C21.2736 12.5665 20.9971 12.29 20.9971 11.9489V10.0038H19.052C18.711 10.0038 18.4344 9.72738 18.4344 9.38632V6.42989C18.4344 6.08883 18.711 5.81236 19.052 5.81236H20.9971V3.86899C20.9971 3.52793 21.2736 3.25146 21.6146 3.25146H24.5693C24.9103 3.25146 25.1868 3.52793 25.1868 3.86899V5.8123H27.1319C27.4729 5.8123 27.7495 6.08877 27.7495 6.42983V9.38625C27.7495 9.72732 27.4729 10.0038 27.1319 10.0038H25.1868V11.9489C25.1868 12.29 24.9104 12.5665 24.5693 12.5665ZM22.2322 11.3314H23.9518V9.38632C23.9518 9.04525 24.2284 8.76879 24.5694 8.76879H26.5145V7.04742H24.5694C24.2284 7.04742 23.9518 6.77095 23.9518 6.42989V4.48652H22.2322V6.42983C22.2322 6.77089 21.9557 7.04736 21.6147 7.04736H19.6696V8.76872H21.6147C21.9557 8.76872 22.2322 9.04519 22.2322 9.38625V11.3314Z" fill="white"/>
</g>
<defs>
<clipPath id="clip0_1_1432">
<rect width="31" height="31" fill="white"/>
</clipPath>
</defs>
</svg>
