<svg width="74" height="74" viewBox="0 0 74 74" fill="none" xmlns="http://www.w3.org/2000/svg">
<circle cx="2.3125" cy="2.3125" r="2.3125" transform="matrix(-1 0 0 1 18.5 41.625)" fill="#E8E8E8"/>
<circle cx="2.3125" cy="2.3125" r="2.3125" transform="matrix(-1 0 0 1 18.5 69.375)" fill="#E8E8E8"/>
<circle cx="2.3125" cy="2.3125" r="2.3125" transform="matrix(-1 0 0 1 18.5 55.5)" fill="#E8E8E8"/>
<circle cx="2.3125" cy="2.3125" r="2.3125" transform="matrix(-1 0 0 1 32.375 41.625)" fill="#E8E8E8"/>
<circle cx="2.3125" cy="2.3125" r="2.3125" transform="matrix(-1 0 0 1 32.375 69.375)" fill="#E8E8E8"/>
<circle cx="2.3125" cy="2.3125" r="2.3125" transform="matrix(-1 0 0 1 32.375 55.5)" fill="#E8E8E8"/>
<circle cx="2.3125" cy="2.3125" r="2.3125" transform="matrix(-1 0 0 1 60.125 41.625)" fill="#E8E8E8"/>
<circle cx="2.3125" cy="2.3125" r="2.3125" transform="matrix(-1 0 0 1 60.125 69.375)" fill="#E8E8E8"/>
<circle cx="2.3125" cy="2.3125" r="2.3125" transform="matrix(-1 0 0 1 60.125 55.5)" fill="#E8E8E8"/>
<circle cx="2.3125" cy="2.3125" r="2.3125" transform="matrix(-1 0 0 1 4.625 41.625)" fill="#E8E8E8"/>
<circle cx="2.3125" cy="2.3125" r="2.3125" transform="matrix(-1 0 0 1 4.625 69.375)" fill="#E8E8E8"/>
<circle cx="2.3125" cy="2.3125" r="2.3125" transform="matrix(-1 0 0 1 4.625 55.5)" fill="#E8E8E8"/>
<circle cx="2.3125" cy="2.3125" r="2.3125" transform="matrix(-1 0 0 1 46.25 41.625)" fill="#E8E8E8"/>
<circle cx="2.3125" cy="2.3125" r="2.3125" transform="matrix(-1 0 0 1 46.25 69.375)" fill="#E8E8E8"/>
<circle cx="2.3125" cy="2.3125" r="2.3125" transform="matrix(-1 0 0 1 46.25 55.5)" fill="#E8E8E8"/>
<circle cx="2.3125" cy="2.3125" r="2.3125" transform="matrix(-1 0 0 1 74 41.625)" fill="#E8E8E8"/>
<circle cx="2.3125" cy="2.3125" r="2.3125" transform="matrix(-1 0 0 1 74 69.375)" fill="#E8E8E8"/>
<circle cx="2.3125" cy="2.3125" r="2.3125" transform="matrix(-1 0 0 1 74 55.5)" fill="#E8E8E8"/>
<circle cx="2.3125" cy="2.3125" r="2.3125" transform="matrix(-1 0 0 1 46.25 27.75)" fill="#E8E8E8"/>
<circle cx="2.3125" cy="2.3125" r="2.3125" transform="matrix(-1 0 0 1 46.25 0)" fill="#E8E8E8"/>
<circle cx="2.3125" cy="2.3125" r="2.3125" transform="matrix(-1 0 0 1 46.25 55.5)" fill="#E8E8E8"/>
<circle cx="2.3125" cy="2.3125" r="2.3125" transform="matrix(-1 0 0 1 46.25 41.625)" fill="#E8E8E8"/>
<circle cx="2.3125" cy="2.3125" r="2.3125" transform="matrix(-1 0 0 1 46.25 13.875)" fill="#E8E8E8"/>
<circle cx="2.3125" cy="2.3125" r="2.3125" transform="matrix(-1 0 0 1 46.25 69.375)" fill="#E8E8E8"/>
<circle cx="2.3125" cy="2.3125" r="2.3125" transform="matrix(-1 0 0 1 60.125 27.75)" fill="#E8E8E8"/>
<circle cx="2.3125" cy="2.3125" r="2.3125" transform="matrix(-1 0 0 1 60.125 0)" fill="#E8E8E8"/>
<circle cx="2.3125" cy="2.3125" r="2.3125" transform="matrix(-1 0 0 1 60.125 55.5)" fill="#E8E8E8"/>
<circle cx="2.3125" cy="2.3125" r="2.3125" transform="matrix(-1 0 0 1 60.125 41.625)" fill="#E8E8E8"/>
<circle cx="2.3125" cy="2.3125" r="2.3125" transform="matrix(-1 0 0 1 60.125 13.875)" fill="#E8E8E8"/>
<circle cx="2.3125" cy="2.3125" r="2.3125" transform="matrix(-1 0 0 1 60.125 69.375)" fill="#E8E8E8"/>
<circle cx="2.3125" cy="2.3125" r="2.3125" transform="matrix(-1 0 0 1 74 27.75)" fill="#E8E8E8"/>
<circle cx="2.3125" cy="2.3125" r="2.3125" transform="matrix(-1 0 0 1 74 0)" fill="#E8E8E8"/>
<circle cx="2.3125" cy="2.3125" r="2.3125" transform="matrix(-1 0 0 1 74 55.5)" fill="#E8E8E8"/>
<circle cx="2.3125" cy="2.3125" r="2.3125" transform="matrix(-1 0 0 1 74 41.625)" fill="#E8E8E8"/>
<circle cx="2.3125" cy="2.3125" r="2.3125" transform="matrix(-1 0 0 1 74 13.875)" fill="#E8E8E8"/>
<circle cx="2.3125" cy="2.3125" r="2.3125" transform="matrix(-1 0 0 1 74 69.375)" fill="#E8E8E8"/>
</svg>
