<svg width="44" height="44" viewBox="0 0 44 44" fill="none" xmlns="http://www.w3.org/2000/svg">
<circle cx="22" cy="22" r="22" fill="#43D8FC"/>
<path d="M23.2973 14.172C23.244 14.2288 23.2016 14.2967 23.1728 14.3718C23.144 14.4468 23.1294 14.5274 23.1297 14.6088L23.1297 17.8133C23.1297 18.0633 22.9444 18.2659 22.7158 18.2659L13.5545 18.2659C13.2482 18.2659 13 18.5375 13 18.8724L13 25.1094C13 25.4444 13.2482 25.7159 13.5545 25.7159L22.7158 25.7159C22.9444 25.7159 23.1297 25.9185 23.1297 26.1685L23.1297 29.382C23.1239 29.717 23.3674 29.9936 23.6735 29.9999C23.7494 30.0015 23.8247 29.986 23.8948 29.9545C23.965 29.9229 24.0285 29.876 24.0814 29.8165L30.8345 22.4299C30.9388 22.3176 30.9983 22.1646 31 22.0045C31.0003 21.9236 30.9858 21.8435 30.9573 21.7689C30.9289 21.6943 30.8871 21.6267 30.8345 21.57L24.0814 14.1834C23.8677 13.9434 23.5167 13.9383 23.2973 14.172Z" fill="white"/>
</svg>
