<svg width="20" height="20" viewBox="0 0 20 20" fill="none" xmlns="http://www.w3.org/2000/svg">
<g clip-path="url(#clip0_75_1548)">
<path d="M1.66666 9.99997L9.70185 14.0176C9.81116 14.0722 9.86582 14.0996 9.92316 14.1103C9.97393 14.1198 10.026 14.1198 10.0768 14.1103C10.1342 14.0996 10.1888 14.0722 10.2981 14.0176L18.3333 9.99997M1.66666 14.1666L9.70185 18.1842C9.81116 18.2389 9.86582 18.2662 9.92316 18.277C9.97393 18.2865 10.026 18.2865 10.0768 18.277C10.1342 18.2662 10.1888 18.2389 10.2981 18.1842L18.3333 14.1666M1.66666 5.83331L9.70185 1.81571C9.81116 1.76105 9.86582 1.73372 9.92316 1.72297C9.97393 1.71344 10.026 1.71344 10.0768 1.72297C10.1342 1.73372 10.1888 1.76105 10.2981 1.81571L18.3333 5.83331L10.2981 9.8509C10.1888 9.90556 10.1342 9.93289 10.0768 9.94365C10.026 9.95317 9.97393 9.95317 9.92316 9.94365C9.86582 9.93289 9.81116 9.90556 9.70185 9.8509L1.66666 5.83331Z" stroke="#292929" stroke-width="1.5" stroke-linecap="round" stroke-linejoin="round"/>
</g>
<defs>
<clipPath id="clip0_75_1548">
<rect width="20" height="20" fill="white"/>
</clipPath>
</defs>
</svg>
