<svg width="40" height="40" viewBox="0 0 40 40" fill="none" xmlns="http://www.w3.org/2000/svg">
<g clip-path="url(#clip0_71_831)">
<path d="M32.6789 0H7.32109C5.84766 0 4.64844 1.19844 4.64844 2.67109V8.25C4.64844 9.72344 5.84766 10.9219 7.32109 10.9219H16.2172L19.1125 14.2805C19.2225 14.4081 19.3587 14.5106 19.5118 14.5808C19.665 14.651 19.8315 14.6874 20 14.6874C20.1685 14.6874 20.335 14.651 20.4882 14.5808C20.6413 14.5106 20.7775 14.4081 20.8875 14.2805L23.7828 10.9219H32.6789C34.1523 10.9219 35.3516 9.72344 35.3516 8.25V2.67109C35.3516 1.19844 34.1523 0 32.6789 0ZM30.2711 32.1209H24.5406L25.5531 35.4436C25.6734 35.81 25.7312 36.1819 25.7312 36.5483C25.7312 38.042 24.7789 39.4342 23.2812 39.9225C22.4633 40.1897 21.5844 39.7444 21.3172 38.9272L20.4086 36.0202L19.7344 33.8623C19.5575 33.3211 19.2595 32.8274 18.8629 32.4188C18.4664 32.0102 17.9818 31.6975 17.4461 31.5045V18.6991C17.4516 18.6945 17.4562 18.6898 17.4617 18.6843C17.8391 18.3067 18.2872 18.0073 18.7805 17.803C19.2739 17.5999 19.8023 17.495 20.3359 17.4945H28.0484C29.9961 17.4945 31.6617 18.8937 31.9977 20.8124L33.3344 28.4765C33.6672 30.3787 32.2031 32.1209 30.2711 32.1209ZM13.9785 17.0874H8.74758C8.12703 17.0874 7.62398 17.5905 7.62398 18.211V31.758C7.62398 32.3786 8.12703 32.8816 8.74758 32.8816H13.9785C14.5991 32.8816 15.1021 32.3786 15.1021 31.758V18.211C15.1021 17.5905 14.5991 17.0874 13.9785 17.0874Z" fill="#048AE2"/>
</g>
<defs>
<clipPath id="clip0_71_831">
<rect width="40" height="40" fill="white"/>
</clipPath>
</defs>
</svg>
