<svg width="36" height="36" viewBox="0 0 36 36" fill="none" xmlns="http://www.w3.org/2000/svg">
<g clip-path="url(#clip0_71_589)">
<path d="M35.2829 9.27812C35.0794 8.51224 34.6783 7.81325 34.1197 7.2511C33.5612 6.68895 32.8647 6.28337 32.1002 6.07493C29.2856 5.31812 18.0356 5.31812 18.0356 5.31812C18.0356 5.31812 6.78564 5.31812 3.9711 6.07493C3.20654 6.28337 2.51013 6.68895 1.95158 7.2511C1.39302 7.81325 0.991903 8.51224 0.788372 9.27812C0.0356446 12.1049 0.0356445 17.9999 0.0356445 17.9999C0.0356445 17.9999 0.0356446 23.8949 0.788372 26.7217C0.991903 27.4876 1.39302 28.1866 1.95158 28.7488C2.51013 29.3109 3.20654 29.7165 3.9711 29.9249C6.78564 30.6818 18.0356 30.6818 18.0356 30.6818C18.0356 30.6818 29.2856 30.6818 32.1002 29.9249C32.8647 29.7165 33.5612 29.3109 34.1197 28.7488C34.6783 28.1866 35.0794 27.4876 35.2829 26.7217C36.0356 23.8949 36.0356 17.9999 36.0356 17.9999C36.0356 17.9999 36.0356 12.1049 35.2829 9.27812Z" fill="#FF0302"/>
<path d="M14.354 23.3529V12.647L23.7631 17.9999L14.354 23.3529Z" fill="#FEFEFE"/>
</g>
<defs>
<clipPath id="clip0_71_589">
<rect width="36" height="36" fill="white"/>
</clipPath>
</defs>
</svg>
